<svg width="253" height="51" fill="none" xmlns="http://www.w3.org/2000/svg"><path fill-rule="evenodd" clip-rule="evenodd" d="M0 40.206V10.794C0 4.618 4.236.5 10.438.5h30.405c6.202 0 10.438 4.118 10.438 10.294v29.412c0 6.176-4.236 10.294-10.438 10.294H10.438C4.236 50.5 0 46.382 0 40.206Zm48.685-24.073H46.84c-3.38 0-5.838 2.766-5.838 5.823v5.823c0 3.057 2.458 5.823 5.838 5.823h1.844v5.968c0 4.367-3.073 7.133-7.682 7.133H10.278c-4.762 0-7.681-2.766-7.681-7.133v-5.968H4.44c3.38 0 5.838-2.766 5.838-5.823v-5.823c0-3.057-2.458-5.823-5.838-5.823H2.597v-5.968c0-4.367 3.072-7.133 7.681-7.133h30.725c4.763 0 7.682 2.766 7.682 7.133v5.968ZM27.177 42.336c5.991 0 10.754-4.513 10.754-10.19h.153v-10.19c0-5.677-4.916-10.19-10.753-10.19h-3.227c-5.991 0-10.753 4.513-10.753 10.19v10.19c0 5.677 4.916 10.19 10.753 10.19h3.073Zm-.1-28.544h-3.162c-4.6 0-8.336 4.175-8.336 8.783v9.648c0 4.608 3.737 8.784 8.336 8.784h3.162c4.6 0 8.624-4.176 8.624-8.784v-9.648c0-4.608-4.024-8.784-8.624-8.784Zm5.75 14.4c0 3.023-3.162 5.759-6.325 5.759h-1.724c-3.163 0-6.325-2.736-6.325-5.76v-5.76c0-3.024 3.162-5.76 6.325-5.76h1.724c3.163 0 6.325 2.736 6.325 5.76v5.76Zm-7.06 3.09h.14s.706 0 .706.749c0 .748-.705.748-.705.748h-.142c-2.963 0-5.644-2.095-5.644-5.236v-2.244s0-.748.706-.748c.705 0 .705.748.705.748v2.244c0 2.393 2.117 3.74 4.233 3.74Z" fill="#fff"/><path d="m79.823 35.31-.448-2.985h-.144c-.98 1.214-1.99 2.076-3.029 2.585-1.027.498-2.246.746-3.656.746-1.912 0-3.4-.474-4.463-1.422-1.063-.949-1.595-2.262-1.595-3.939 0-1.839.789-3.268 2.366-4.285 1.59-1.018 3.883-1.556 6.882-1.614l3.71-.104v-1.25c0-1.792-.376-3.145-1.129-4.06-.753-.913-1.965-1.37-3.638-1.37-1.804 0-3.674.486-5.61 1.458l-.663-1.493c2.139-.971 4.254-1.457 6.345-1.457 2.138 0 3.733.538 4.785 1.614 1.063 1.075 1.595 2.752 1.595 5.031V35.31h-1.308Zm-7.17-1.215c2.08 0 3.717-.573 4.911-1.718 1.207-1.157 1.81-2.759 1.81-4.806v-1.856l-3.405.138c-2.736.128-4.69.544-5.86 1.25-1.16.694-1.739 1.78-1.739 3.261 0 1.18.37 2.1 1.111 2.76.753.647 1.81.97 3.173.97ZM91.723 35.31l-7.527-18.86h1.828L91.06 29.27c.67 1.643 1.171 3.077 1.506 4.303h.107c.49-1.573.992-3.019 1.506-4.337l5.036-12.787h1.828l-7.528 18.86h-1.792ZM106.079 35.31h-1.774V16.45h1.774v18.86Zm-2.025-24.1c0-1.11.376-1.666 1.129-1.666.37 0 .657.145.86.434.215.29.323.7.323 1.232 0 .52-.108.931-.323 1.232a.978.978 0 0 1-.86.45c-.753 0-1.129-.56-1.129-1.682ZM124.45 35.31l-.448-2.985h-.144c-.979 1.214-1.989 2.076-3.029 2.585-1.027.498-2.246.746-3.656.746-1.911 0-3.399-.474-4.462-1.422-1.064-.949-1.596-2.262-1.596-3.939 0-1.839.789-3.268 2.366-4.285 1.589-1.018 3.883-1.556 6.882-1.614l3.71-.104v-1.25c0-1.792-.376-3.145-1.129-4.06-.752-.913-1.965-1.37-3.638-1.37-1.804 0-3.674.486-5.61 1.458l-.663-1.493c2.139-.971 4.254-1.457 6.345-1.457 2.138 0 3.734.538 4.785 1.614 1.063 1.075 1.595 2.752 1.595 5.031V35.31h-1.308Zm-7.169-1.215c2.079 0 3.716-.573 4.911-1.718 1.206-1.157 1.81-2.759 1.81-4.806v-1.856l-3.406.138c-2.736.128-4.689.544-5.86 1.25-1.159.694-1.739 1.78-1.739 3.261 0 1.18.371 2.1 1.111 2.76.753.647 1.811.97 3.173.97ZM144.165 30.4c0 1.688-.664 2.99-1.99 3.903-1.326.902-3.208 1.353-5.645 1.353-2.605 0-4.672-.387-6.202-1.162v-1.857a14.06 14.06 0 0 0 6.202 1.423c1.923 0 3.381-.306 4.373-.92 1.003-.624 1.505-1.451 1.505-2.48 0-.95-.4-1.747-1.201-2.395-.788-.648-2.091-1.284-3.907-1.908-1.947-.683-3.315-1.267-4.104-1.753-.789-.497-1.386-1.052-1.792-1.665-.395-.625-.592-1.383-.592-2.273 0-1.411.61-2.528 1.828-3.349 1.231-.821 2.946-1.232 5.144-1.232 2.103 0 4.098.382 5.986 1.145l-.663 1.562c-1.912-.763-3.686-1.145-5.323-1.145-1.589 0-2.849.254-3.781.763-.932.51-1.398 1.215-1.398 2.117 0 .983.358 1.77 1.075 2.36.729.59 2.145 1.249 4.248 1.977 1.756.613 3.034 1.169 3.835 1.666.801.486 1.398 1.041 1.792 1.666.406.624.61 1.359.61 2.203ZM161.012 35.31l-.448-2.985h-.144c-.979 1.214-1.989 2.076-3.029 2.585-1.027.498-2.246.746-3.656.746-1.911 0-3.399-.474-4.462-1.422-1.064-.949-1.596-2.262-1.596-3.939 0-1.839.789-3.268 2.366-4.285 1.589-1.018 3.883-1.556 6.882-1.614l3.71-.104v-1.25c0-1.792-.376-3.145-1.129-4.06-.752-.913-1.965-1.37-3.638-1.37-1.804 0-3.674.486-5.61 1.458l-.663-1.493c2.139-.971 4.254-1.457 6.345-1.457 2.138 0 3.734.538 4.785 1.614 1.063 1.075 1.595 2.752 1.595 5.031V35.31h-1.308Zm-7.169-1.215c2.079 0 3.716-.573 4.911-1.718 1.206-1.157 1.81-2.759 1.81-4.806v-1.856l-3.406.138c-2.736.128-4.689.544-5.86 1.25-1.159.694-1.739 1.78-1.739 3.261 0 1.18.371 2.1 1.112 2.76.752.647 1.81.97 3.172.97ZM170.421 35.31h-1.774V8.311h1.774V35.31ZM184.831 35.656c-2.832 0-5.042-.844-6.631-2.533-1.578-1.689-2.366-4.054-2.366-7.096 0-3.007.764-5.413 2.294-7.218 1.529-1.816 3.59-2.724 6.183-2.724 2.294 0 4.104.775 5.431 2.325 1.326 1.55 1.989 3.655 1.989 6.316v1.388h-14.033c.024 2.59.645 4.569 1.864 5.933 1.23 1.365 2.987 2.048 5.269 2.048 1.111 0 2.085-.075 2.921-.226.849-.15 1.918-.474 3.208-.971v1.561c-1.099.463-2.114.775-3.046.937-.932.173-1.96.26-3.083.26Zm-.52-18.044c-1.876 0-3.381.602-4.516 1.805-1.135 1.19-1.799 2.914-1.99 5.17h12.044c0-2.186-.49-3.892-1.469-5.118-.98-1.238-2.336-1.857-4.069-1.857ZM209.188 30.4c0 1.688-.664 2.99-1.99 3.903-1.326.902-3.208 1.353-5.645 1.353-2.605 0-4.672-.387-6.202-1.162v-1.857a14.06 14.06 0 0 0 6.202 1.423c1.923 0 3.381-.306 4.373-.92 1.003-.624 1.505-1.451 1.505-2.48 0-.95-.4-1.747-1.201-2.395-.788-.648-2.091-1.284-3.907-1.908-1.947-.683-3.315-1.267-4.104-1.753-.789-.497-1.386-1.052-1.792-1.665-.395-.625-.592-1.383-.592-2.273 0-1.411.61-2.528 1.828-3.349 1.231-.821 2.946-1.232 5.144-1.232 2.103 0 4.098.382 5.986 1.145l-.663 1.562c-1.912-.763-3.686-1.145-5.323-1.145-1.589 0-2.849.254-3.781.763-.932.51-1.398 1.215-1.398 2.117 0 .983.358 1.77 1.075 2.36.729.59 2.145 1.249 4.248 1.977 1.756.613 3.034 1.169 3.835 1.666.801.486 1.398 1.041 1.792 1.666.407.624.61 1.359.61 2.203ZM213.847 33.956c0-1.134.478-1.7 1.434-1.7.98 0 1.47.566 1.47 1.7 0 1.133-.49 1.7-1.47 1.7-.956 0-1.434-.566-1.434-1.7ZM230.623 16.085c.824 0 1.709.081 2.653.243l-.341 1.649a10.706 10.706 0 0 0-2.527-.295c-1.661 0-3.023.682-4.086 2.047-1.064 1.365-1.596 3.088-1.596 5.17v10.41h-1.774V16.45h1.506l.179 3.401h.125c.801-1.388 1.655-2.36 2.563-2.915.908-.566 2.008-.85 3.298-.85ZM238.796 16.45v12.214c0 1.897.412 3.28 1.236 4.147.825.856 2.103 1.284 3.836 1.284 2.318 0 4.02-.567 5.108-1.7 1.099-1.134 1.649-2.979 1.649-5.535V16.45h1.756v18.86h-1.506l-.322-2.603h-.108c-1.266 1.966-3.518 2.95-6.756 2.95-4.433 0-6.65-2.297-6.65-6.889V16.45h1.757Z" fill="#fff"/><path d="m79.823 35.31-.448-2.985h-.144c-.98 1.214-1.99 2.076-3.029 2.585-1.027.498-2.246.746-3.656.746-1.912 0-3.4-.474-4.463-1.422-1.063-.949-1.595-2.262-1.595-3.939 0-1.839.789-3.268 2.366-4.285 1.59-1.018 3.883-1.556 6.882-1.614l3.71-.104v-1.25c0-1.792-.376-3.145-1.129-4.06-.753-.913-1.965-1.37-3.638-1.37-1.804 0-3.674.486-5.61 1.458l-.663-1.493c2.139-.971 4.254-1.457 6.345-1.457 2.138 0 3.733.538 4.785 1.614 1.063 1.075 1.595 2.752 1.595 5.031V35.31h-1.308Zm-7.17-1.215c2.08 0 3.717-.573 4.911-1.718 1.207-1.157 1.81-2.759 1.81-4.806v-1.856l-3.405.138c-2.736.128-4.69.544-5.86 1.25-1.16.694-1.739 1.78-1.739 3.261 0 1.18.37 2.1 1.111 2.76.753.647 1.81.97 3.173.97ZM91.723 35.31l-7.527-18.86h1.828L91.06 29.27c.67 1.643 1.171 3.077 1.506 4.303h.107c.49-1.573.992-3.019 1.506-4.337l5.036-12.787h1.828l-7.528 18.86h-1.792ZM106.079 35.31h-1.774V16.45h1.774v18.86Zm-2.025-24.1c0-1.11.376-1.666 1.129-1.666.37 0 .657.145.86.434.215.29.323.7.323 1.232 0 .52-.108.931-.323 1.232a.978.978 0 0 1-.86.45c-.753 0-1.129-.56-1.129-1.682ZM124.45 35.31l-.448-2.985h-.144c-.979 1.214-1.989 2.076-3.029 2.585-1.027.498-2.246.746-3.656.746-1.911 0-3.399-.474-4.462-1.422-1.064-.949-1.596-2.262-1.596-3.939 0-1.839.789-3.268 2.366-4.285 1.589-1.018 3.883-1.556 6.882-1.614l3.71-.104v-1.25c0-1.792-.376-3.145-1.129-4.06-.752-.913-1.965-1.37-3.638-1.37-1.804 0-3.674.486-5.61 1.458l-.663-1.493c2.139-.971 4.254-1.457 6.345-1.457 2.138 0 3.734.538 4.785 1.614 1.063 1.075 1.595 2.752 1.595 5.031V35.31h-1.308Zm-7.169-1.215c2.079 0 3.716-.573 4.911-1.718 1.206-1.157 1.81-2.759 1.81-4.806v-1.856l-3.406.138c-2.736.128-4.689.544-5.86 1.25-1.159.694-1.739 1.78-1.739 3.261 0 1.18.371 2.1 1.111 2.76.753.647 1.811.97 3.173.97ZM144.165 30.4c0 1.688-.664 2.99-1.99 3.903-1.326.902-3.208 1.353-5.645 1.353-2.605 0-4.672-.387-6.202-1.162v-1.857a14.06 14.06 0 0 0 6.202 1.423c1.923 0 3.381-.306 4.373-.92 1.003-.624 1.505-1.451 1.505-2.48 0-.95-.4-1.747-1.201-2.395-.788-.648-2.091-1.284-3.907-1.908-1.947-.683-3.315-1.267-4.104-1.753-.789-.497-1.386-1.052-1.792-1.665-.395-.625-.592-1.383-.592-2.273 0-1.411.61-2.528 1.828-3.349 1.231-.821 2.946-1.232 5.144-1.232 2.103 0 4.098.382 5.986 1.145l-.663 1.562c-1.912-.763-3.686-1.145-5.323-1.145-1.589 0-2.849.254-3.781.763-.932.51-1.398 1.215-1.398 2.117 0 .983.358 1.77 1.075 2.36.729.59 2.145 1.249 4.248 1.977 1.756.613 3.034 1.169 3.835 1.666.801.486 1.398 1.041 1.792 1.666.406.624.61 1.359.61 2.203ZM161.012 35.31l-.448-2.985h-.144c-.979 1.214-1.989 2.076-3.029 2.585-1.027.498-2.246.746-3.656.746-1.911 0-3.399-.474-4.462-1.422-1.064-.949-1.596-2.262-1.596-3.939 0-1.839.789-3.268 2.366-4.285 1.589-1.018 3.883-1.556 6.882-1.614l3.71-.104v-1.25c0-1.792-.376-3.145-1.129-4.06-.752-.913-1.965-1.37-3.638-1.37-1.804 0-3.674.486-5.61 1.458l-.663-1.493c2.139-.971 4.254-1.457 6.345-1.457 2.138 0 3.734.538 4.785 1.614 1.063 1.075 1.595 2.752 1.595 5.031V35.31h-1.308Zm-7.169-1.215c2.079 0 3.716-.573 4.911-1.718 1.206-1.157 1.81-2.759 1.81-4.806v-1.856l-3.406.138c-2.736.128-4.689.544-5.86 1.25-1.159.694-1.739 1.78-1.739 3.261 0 1.18.371 2.1 1.112 2.76.752.647 1.81.97 3.172.97ZM170.421 35.31h-1.774V8.311h1.774V35.31ZM184.831 35.656c-2.832 0-5.042-.844-6.631-2.533-1.578-1.689-2.366-4.054-2.366-7.096 0-3.007.764-5.413 2.294-7.218 1.529-1.816 3.59-2.724 6.183-2.724 2.294 0 4.104.775 5.431 2.325 1.326 1.55 1.989 3.655 1.989 6.316v1.388h-14.033c.024 2.59.645 4.569 1.864 5.933 1.23 1.365 2.987 2.048 5.269 2.048 1.111 0 2.085-.075 2.921-.226.849-.15 1.918-.474 3.208-.971v1.561c-1.099.463-2.114.775-3.046.937-.932.173-1.96.26-3.083.26Zm-.52-18.044c-1.876 0-3.381.602-4.516 1.805-1.135 1.19-1.799 2.914-1.99 5.17h12.044c0-2.186-.49-3.892-1.469-5.118-.98-1.238-2.336-1.857-4.069-1.857ZM209.188 30.4c0 1.688-.664 2.99-1.99 3.903-1.326.902-3.208 1.353-5.645 1.353-2.605 0-4.672-.387-6.202-1.162v-1.857a14.06 14.06 0 0 0 6.202 1.423c1.923 0 3.381-.306 4.373-.92 1.003-.624 1.505-1.451 1.505-2.48 0-.95-.4-1.747-1.201-2.395-.788-.648-2.091-1.284-3.907-1.908-1.947-.683-3.315-1.267-4.104-1.753-.789-.497-1.386-1.052-1.792-1.665-.395-.625-.592-1.383-.592-2.273 0-1.411.61-2.528 1.828-3.349 1.231-.821 2.946-1.232 5.144-1.232 2.103 0 4.098.382 5.986 1.145l-.663 1.562c-1.912-.763-3.686-1.145-5.323-1.145-1.589 0-2.849.254-3.781.763-.932.51-1.398 1.215-1.398 2.117 0 .983.358 1.77 1.075 2.36.729.59 2.145 1.249 4.248 1.977 1.756.613 3.034 1.169 3.835 1.666.801.486 1.398 1.041 1.792 1.666.407.624.61 1.359.61 2.203ZM213.847 33.956c0-1.134.478-1.7 1.434-1.7.98 0 1.47.566 1.47 1.7 0 1.133-.49 1.7-1.47 1.7-.956 0-1.434-.566-1.434-1.7ZM230.623 16.085c.824 0 1.709.081 2.653.243l-.341 1.649a10.706 10.706 0 0 0-2.527-.295c-1.661 0-3.023.682-4.086 2.047-1.064 1.365-1.596 3.088-1.596 5.17v10.41h-1.774V16.45h1.506l.179 3.401h.125c.801-1.388 1.655-2.36 2.563-2.915.908-.566 2.008-.85 3.298-.85ZM238.796 16.45v12.214c0 1.897.412 3.28 1.236 4.147.825.856 2.103 1.284 3.836 1.284 2.318 0 4.02-.567 5.108-1.7 1.099-1.134 1.649-2.979 1.649-5.535V16.45h1.756v18.86h-1.506l-.322-2.603h-.108c-1.266 1.966-3.518 2.95-6.756 2.95-4.433 0-6.65-2.297-6.65-6.889V16.45h1.757Z" stroke="#fff"/></svg>