<svg width="217" height="37" fill="none" xmlns="http://www.w3.org/2000/svg"><path d="M13.38 20.465c0-2.262-1.43-3.662-3.641-3.662H6.64c-.994.14-1.445.743-1.445 1.91v5.068l4.543.006c2.246 0 3.641-.997 3.642-3.322Zm-8.184-8.177h4.089c2.297 0 3.115-1.46 3.115-2.987 0-2.003-1.195-3.2-3.187-3.2H6.887c-1.162.074-1.69.673-1.69 1.928v4.259Zm13.525 8.547c0 4.81-3.672 8.17-9.356 8.17H0V4.974C.017 3.443 1.607 1.9 3.124 1.841h6.125c5.114 0 8.418 2.578 8.418 6.852 0 2.798-1.397 4.414-2.23 5.133l-.717.615.82.464c1.995 1.125 3.181 3.34 3.181 5.93Zm108.406-2.296c0-4.373-2.36-4.882-4.127-4.882-3.57 0-3.845 3.595-3.845 4.697 0 2.503 1.081 5.175 4.136 5.175 1.751 0 3.836-.866 3.836-4.99Zm5.072-9.386-.017 18.017c0 6.871-5.132 9.313-9.886 9.313-2.309 0-4.857-.623-6.823-1.67l-.386-.205.627-1.604.437-1.105c.481-1.191 1.176-1.488 2.36-1.128.91.33 2.266.696 3.759.696 3.064 0 4.755-1.45 4.755-4.072v-.548l-.438.323c-1.107.848-2.515 1.264-4.291 1.264-5.201 0-8.831-4.085-8.831-9.934 0-5.852 3.51-9.785 8.728-9.785 2.626 0 4.239.928 5.14 1.71l.258.225.154-.3c.404-.775 1.219-1.197 2.283-1.197h2.171Zm-74.094 9.823c0-3.185-1.97-5.413-4.78-5.413-2.797 0-4.745 2.228-4.745 5.413 0 3.187 1.948 5.417 4.746 5.417 2.854 0 4.78-2.178 4.78-5.417Zm5.476 0c0 5.896-4.322 10.174-10.255 10.174-5.925 0-10.221-4.278-10.221-10.174 0-5.893 4.296-10.172 10.221-10.172 5.934 0 10.255 4.28 10.255 10.172Zm26.91 9.863V12.194c0-2.009-.952-2.983-2.934-2.983l-2.198-.008.018 15.193h-.017l.017 4.608h5.115v-.165Zm14.641-20.08c-2.858 0-4.677 1.275-5.698 2.35l-.343.348-.12-.472c-.301-1.153-1.314-1.79-2.833-1.79h-2.454l.017 19.649h5.184v-9.056c0-.885.12-1.652.351-2.354.618-2.123 2.026-3.44 4.197-3.44 1.742 0 2.746.922 2.746 3.306v8.558c0 2.033 1.262 2.986 3.287 2.986h1.914V16.467c0-4.965-1.682-7.709-6.248-7.709ZM78.469 19.484a4.807 4.807 0 0 0-.774-1.095l-.178-.19.188-.181c.272-.288.55-.627.817-1.022l5.223-7.795h-6.34l-3.925 6.096c-.223.327-.671.492-1.343.492h-1.354V4.267c0-2.304-1.577-3.471-3.124-3.471h-2.082l.006 28.055h5.2v-8.16h.987c.64 0 1.076.074 1.277.422l3.099 5.873c.864 1.594 1.728 1.865 3.352 1.865h4.305l-3.206-5.323-2.128-4.043Zm-42.727-.51c0-3.184-1.965-5.412-4.78-5.412-2.797 0-4.742 2.228-4.742 5.413 0 3.187 1.945 5.417 4.742 5.417 2.855 0 4.78-2.178 4.78-5.417Zm5.475 0c0 5.896-4.313 10.175-10.255 10.175-5.918 0-10.214-4.278-10.214-10.174 0-5.893 4.296-10.172 10.214-10.172 5.942 0 10.254 4.28 10.254 10.172h.001Zm43.54-14.91c0-1.807 1.46-3.27 3.245-3.27a3.262 3.262 0 0 1 3.252 3.27 3.262 3.262 0 0 1-3.252 3.268c-1.785 0-3.244-1.464-3.244-3.267ZM160.548 22.308c-.017.018-2.317 2.444-5.329 2.444-2.755 0-5.535-1.694-5.535-5.472 0-3.268 2.154-5.55 5.243-5.55 1.004 0 2.137.361 2.317.967l.026.103c.412 1.374 1.656 1.444 1.897 1.444l2.926.004v-2.561c0-3.378-4.282-4.603-7.166-4.603-6.161 0-10.633 4.305-10.633 10.235 0 5.926 4.42 10.228 10.522 10.228 5.286 0 8.161-3.491 8.187-3.528l.154-.188-2.308-3.85-.301.327Zm49.217-13.224c-2.317 0-4.445 1.09-5.878 2.911l-.403.516-.318-.577c-1.038-1.89-2.815-2.85-5.295-2.85-2.592 0-4.325 1.452-5.141 2.318l-.523.571-.206-.755c-.292-1.088-1.262-1.687-2.72-1.687h-2.146l-.017 19.571h5.123v-8.639c0-.756.095-1.505.283-2.29.507-2.087 1.906-4.33 4.257-4.108 1.45.141 2.154 1.265 2.154 3.437v11.6h4.832v-8.639c0-.947.094-1.654.3-2.364.438-1.991 2.214-4.036 4.488-4.036 1.64 0 2.498.932 2.498 3.438v8.74c0 1.977 1.158 2.861 3.124 2.861h2.076l.009-12.495c0-4.992-2.188-7.523-6.497-7.523Zm-34.988.33c-5.921 0-10.564 4.281-10.564 10.175 0 5.893 4.643 10.174 10.564 10.174 5.939 0 10.255-4.281 10.255-10.174 0-5.894-4.316-10.174-10.255-10.174Zm-38.919 16.652c0-1.807 1.451-3.27 3.244-3.27a3.262 3.262 0 0 1 3.253 3.27 3.263 3.263 0 0 1-3.253 3.268c-1.793 0-3.244-1.464-3.244-3.268Zm38.919-1.061c-2.798 0-4.746-2.23-4.746-5.416 0-3.186 1.948-5.414 4.746-5.414 2.806 0 4.78 2.228 4.78 5.414 0 3.238-1.922 5.416-4.78 5.416Z" fill="#fff"/></svg>