<svg width="44" height="42" fill="none" xmlns="http://www.w3.org/2000/svg"><path d="M37.977 11.297h-5.9V9.795c0-4.947-4.33-8.845-9.752-8.845-5.424 0-9.753 3.898-9.753 8.845v1.502h-5.9c-1.396 0-2.7 1.051-2.887 2.458L.947 38.848c-.093.709.19 1.326.653 1.85.47.53 1.216.793 1.868.793h37.713c.744 0 1.4-.263 1.868-.793.464-.524.747-1.228.653-1.85v-.001l-2.838-25.09v-.002c-.186-1.317-1.397-2.457-2.887-2.457Zm-25.305 6c0-.028.014-.058.038-.102.157.384.584.67 1.01.67.524 0 .888-.302 1.09-.692l.008.013.002.005c.025.046.04.078.04.106v.012l.006.011c.093.176.177.337.177.494 0 .66-.524 1.157-1.231 1.157-.708 0-1.232-.497-1.232-1.157 0-.174.001-.334.086-.494l.006-.01v-.013ZM6.306 13.38h5.9v2.479a2.732 2.732 0 0 0-.107-.07l.001-.002-.012-.004-.007-.002c-.27-.085-.557-.175-.847-.084-.29.09-.48.273-.667.536l-.001.002c-.282.442-.374.97-.374 1.493 0 1.842 1.582 3.24 3.437 3.24 1.948 0 3.437-1.486 3.437-3.24 0-.522-.092-1.05-.373-1.491-.29-.542-.958-.719-1.526-.453-.215.069-.374.234-.481.42V13.38h15.003v2.838c-.109-.17-.268-.3-.473-.43h.001l-.012-.005-.007-.002c-.27-.085-.558-.175-.847-.084-.29.09-.48.273-.667.536l-.001.002c-.282.442-.374.97-.374 1.493 0 1.842 1.582 3.24 3.437 3.24 1.855 0 3.436-1.485 3.436-3.24 0-.522-.092-1.05-.372-1.491-.29-.542-.958-.719-1.526-.453-.215.069-.374.234-.481.42V13.38h5.9c.127 0 .356.058.554.15.099.045.186.097.248.152.064.056.092.107.092.15v.005l2.534 25.105a.44.44 0 0 1-.01.114.217.217 0 0 1-.066.106c-.076.072-.15.072-.24.072H3.194c-.091 0-.164 0-.24-.072a.218.218 0 0 1-.067-.106.438.438 0 0 1-.01-.114l2.838-25.089v-.005c0-.107.077-.223.198-.316a.69.69 0 0 1 .393-.152Zm23.574 3.917c0-.028.015-.058.038-.102.157.384.585.67 1.01.67.507 0 .944-.284 1.103-.67.023.044.038.074.038.102v.012l.006.011c.093.176.177.337.177.494 0 .66-.524 1.157-1.232 1.157-.707 0-1.231-.497-1.231-1.157 0-.174 0-.334.086-.494l.005-.01v-.013Zm-15.011-6V9.795c0-3.761 3.267-6.676 7.456-6.676 4.188 0 7.455 2.915 7.455 6.676v1.502H14.87Z" fill="#006DF0" stroke="#006DF0" stroke-width=".1"/><path d="M5.547 12.982h33.492l3.045 26.96H2.502l3.045-26.96Z" fill="#006DF0"/><path d="M17.06 18.168c0 1.475-1.215 2.67-2.715 2.67-1.499 0-2.714-1.195-2.714-2.67 0-1.475 1.215-2.67 2.714-2.67 1.5 0 2.715 1.195 2.715 2.67ZM33.346 18.168c0 1.475-1.215 2.67-2.715 2.67-1.499 0-2.714-1.195-2.714-2.67 0-1.475 1.215-2.67 2.714-2.67 1.5 0 2.715 1.195 2.715 2.67Z" fill="#fff"/><path fill-rule="evenodd" clip-rule="evenodd" d="M14.964 5.612a.76.76 0 0 1 .51.956c-.461 1.453-.668 3.72-.724 6.03a63.831 63.831 0 0 0 .137 5.895.767.767 0 0 1-.716.817.772.772 0 0 1-.83-.705 65.377 65.377 0 0 1-.142-6.044c.057-2.321.263-4.775.793-6.447a.778.778 0 0 1 .972-.502ZM30 6.38a.76.76 0 0 0-.492.965c.456 1.349.662 3.463.719 5.627a56.014 56.014 0 0 1-.137 5.518.767.767 0 0 0 .712.82c.427.033.8-.281.834-.701.105-1.32.199-3.476.141-5.676-.056-2.177-.263-4.489-.797-6.07A.778.778 0 0 0 30 6.38Z" fill="#006DF0"/></svg>