<svg width="70" height="69" fill="none" xmlns="http://www.w3.org/2000/svg"><mask id="mask0_1904_269" style="mask-type:alpha" maskUnits="userSpaceOnUse" x="0" y="0" width="70" height="69"><circle cx="35" cy="34.5" r="34.5" fill="#C4C4C4"/></mask><g mask="url('#mask0_1904_269')"><path opacity=".4" d="M63.46 48.575c8.237-11.31 4.037-28.4-9.38-38.173C40.662.63 23.108 1.874 14.87 13.182c-8.237 11.31-4.037 28.4 9.38 38.173 13.418 9.773 30.972 8.528 39.21-2.78Z" fill="url('#paint0_radial_1904_269')"/><g filter="url('#filter0_d_1904_269')"><circle cx="34.999" cy="34.5" r="30" fill="#fff"/></g><path opacity=".4" d="M63.46 48.575c8.238-11.31 4.038-28.4-9.38-38.173C40.664.63 23.11 1.874 14.872 13.182c-8.237 11.31-4.037 28.4 9.38 38.173 13.418 9.773 30.972 8.528 39.21-2.78Z" fill="url('#paint1_radial_1904_269')"/><path d="M45.802 26.358h-3.858v-.986c0-3.313-2.852-5.922-6.423-5.922s-6.424 2.61-6.424 5.922v.986H25.24c-.925 0-1.79.709-1.913 1.656l-1.864 16.752c-.063.48.126.896.433 1.249.311.358.808.535 1.24.535h24.772c.493 0 .929-.178 1.24-.535.307-.353.495-.827.433-1.248l-1.864-16.752v-.002a1.957 1.957 0 0 0-1.914-1.655Zm-16.605 4.023c0-.008.003-.017.007-.028.116.246.39.423.665.423.34 0 .578-.191.716-.442.01.022.016.035.016.047v.012l.005.01c.062.119.115.223.115.323 0 .43-.337.756-.792.756s-.792-.325-.792-.756c0-.116.001-.22.055-.322l.005-.011v-.012ZM25 27.782h3.858v1.606a1.912 1.912 0 0 0-.043-.028v-.002l-.012-.004-.007-.002c-.175-.056-.369-.118-.565-.055-.195.062-.323.187-.446.364l-.002.002c-.187.299-.248.655-.248 1.006 0 1.239 1.048 2.18 2.275 2.18 1.289 0 2.274-1 2.274-2.18 0-.35-.06-.706-.247-1.004-.194-.37-.643-.49-1.024-.31a.571.571 0 0 0-.292.236v-1.809h9.82v1.824a1.05 1.05 0 0 0-.283-.246l.001-.002-.013-.004-.006-.002c-.176-.056-.37-.118-.565-.055-.195.062-.323.187-.447.364l-.001.002c-.188.299-.248.655-.248 1.006 0 1.239 1.047 2.18 2.274 2.18 1.228 0 2.275-1 2.275-2.18 0-.35-.06-.706-.247-1.004-.195-.37-.644-.49-1.024-.31a.572.572 0 0 0-.292.236v-1.809h3.858a.999.999 0 0 1 .516.197c.04.037.055.067.055.088v.005l1.664 16.761c0 .029 0 .05-.006.071a.13.13 0 0 1-.04.063c-.044.043-.085.044-.145.044H22.955c-.06 0-.102-.001-.146-.044l-.035.036.035-.036a.13.13 0 0 1-.04-.063.281.281 0 0 1-.005-.07l1.864-16.75v-.006c0-.064.046-.138.123-.198a.433.433 0 0 1 .248-.098ZM40.5 30.381c0-.008.002-.017.007-.028.116.246.39.423.664.423.324 0 .608-.176.725-.423.005.011.007.02.007.028v.012l.006.01c.062.119.114.223.114.323 0 .43-.336.756-.791.756-.456 0-.792-.325-.792-.756 0-.116 0-.22.054-.322l.006-.011v-.012Zm-9.86-4.023v-.986c0-2.501 2.137-4.44 4.88-4.44 2.742 0 4.88 1.939 4.88 4.44v.986h-9.76Z" fill="#2A2A2A" stroke="#2A2A2A" stroke-width=".1"/></g><defs><radialGradient id="paint0_radial_1904_269" cx="0" cy="0" r="1" gradientUnits="userSpaceOnUse" gradientTransform="matrix(-43.58552 -10.78148 14.68656 -59.3723 51.9 38.724)"><stop offset=".107" stop-color="#E3E3E4" stop-opacity="0"/><stop offset=".228" stop-color="#E3E3E4" stop-opacity="0"/><stop offset=".6" stop-color="#E3E3E4" stop-opacity=".08"/><stop offset=".874" stop-color="#E3E3E4" stop-opacity=".6"/><stop offset="1" stop-color="#E3E3E4"/></radialGradient><radialGradient id="paint1_radial_1904_269" cx="0" cy="0" r="1" gradientUnits="userSpaceOnUse" gradientTransform="matrix(-43.58552 -10.78148 14.68656 -59.3723 51.901 38.724)"><stop offset=".107" stop-color="#E3E3E4" stop-opacity="0"/><stop offset=".228" stop-color="#E3E3E4" stop-opacity="0"/><stop offset=".6" stop-color="#E3E3E4" stop-opacity=".08"/><stop offset=".874" stop-color="#E3E3E4" stop-opacity=".6"/><stop offset="1" stop-color="#E3E3E4"/></radialGradient><filter id="filter0_d_1904_269" x="-.001" y=".5" width="70" height="70" filterUnits="userSpaceOnUse" color-interpolation-filters="sRGB"><feFlood flood-opacity="0" result="BackgroundImageFix"/><feColorMatrix in="SourceAlpha" values="0 0 0 0 0 0 0 0 0 0 0 0 0 0 0 0 0 0 127 0" result="hardAlpha"/><feOffset dy="1"/><feGaussianBlur stdDeviation="2.5"/><feComposite in2="hardAlpha" operator="out"/><feColorMatrix values="0 0 0 0 0 0 0 0 0 0 0 0 0 0 0 0 0 0 0.15 0"/><feBlend in2="BackgroundImageFix" result="effect1_dropShadow_1904_269"/><feBlend in="SourceGraphic" in2="effect1_dropShadow_1904_269" result="shape"/></filter></defs></svg>