<svg width="74" height="73" fill="none" xmlns="http://www.w3.org/2000/svg"><g filter="url('#filter0_d_1904_319')"><g filter="url('#filter1_d_1904_319')"><mask id="mask0_1904_319" style="mask-type:alpha" maskUnits="userSpaceOnUse" x="-1" y="-3" width="76" height="75"><circle cx="37" cy="34.5" r="37.5" fill="#C4C4C4"/></mask><g mask="url('#mask0_1904_319')"><g filter="url('#filter2_d_1904_319')"><circle cx="35.5" cy="34.5" r="30" fill="#fff"/></g><path opacity=".4" d="M65.563 50.395c8.667-11.596 4.248-29.12-9.87-39.14-14.117-10.021-32.589-8.745-41.256 2.85-8.667 11.596-4.248 29.12 9.87 39.14 14.118 10.021 32.589 8.745 41.256-2.85Z" fill="url('#paint0_radial_1904_319')"/></g><mask id="mask1_1904_319" style="mask-type:alpha" maskUnits="userSpaceOnUse" x="20" y="19" width="33" height="31"><path fill="#C4C4C4" d="M20.5 19.5h32.081v29.745H20.5z"/></mask><g mask="url('#mask1_1904_319')"><path fill-rule="evenodd" clip-rule="evenodd" d="M22 25.965c0-1.136.944-2.063 2.1-2.063h24.895c1.157 0 2.1.927 2.1 2.063v14.813c0 1.136-.943 2.063-2.1 2.063H24.1c-1.156 0-2.1-.927-2.1-2.063V25.965Zm2.1-.901a.913.913 0 0 0-.917.9v14.814c0 .494.414.901.917.901h24.895a.914.914 0 0 0 .917-.9V25.963c0-.493-.414-.9-.917-.9H24.1Z" fill="#000" stroke="#000" stroke-width=".3" stroke-miterlimit="10"/><path fill-rule="evenodd" clip-rule="evenodd" d="M26.45 33.27h2.366v-1.549H26.45v1.55Zm-1.183.387c0 .428.353.775.788.775h3.155a.782.782 0 0 0 .789-.775v-2.323a.782.782 0 0 0-.789-.774h-3.155a.782.782 0 0 0-.788.774v2.323Z" fill="#000"/><path d="M34.422 35.324h13.407v9.293H34.422v-9.293Z" fill="#fff"/><path fill-rule="evenodd" clip-rule="evenodd" d="M43.19 34.611a.77.77 0 0 1 .42 1.015l-4.477 10.401a.794.794 0 0 1-1.033.412.77.77 0 0 1-.42-1.015l4.477-10.401a.794.794 0 0 1 1.034-.412ZM36.901 38.156c-.5 0-.902.395-.902.886 0 .49.402.885.902.885s.902-.395.902-.885a.895.895 0 0 0-.902-.886Zm-2.48.886c0-1.346 1.11-2.435 2.48-2.435 1.372 0 2.48 1.095 2.48 2.435 0 1.346-1.109 2.434-2.48 2.434-1.37 0-2.48-1.088-2.48-2.434ZM44.388 41.03c-.5 0-.901.394-.901.885 0 .49.402.885.901.885.5 0 .902-.395.902-.885a.892.892 0 0 0-.902-.886Zm-2.479.885c0-1.346 1.108-2.434 2.48-2.434 1.37 0 2.479 1.088 2.479 2.434s-1.109 2.434-2.48 2.434c-1.37 0-2.479-1.088-2.479-2.434Z" fill="#000"/></g></g></g><defs><filter id="filter0_d_1904_319" x="1.5" y="4.5" width="72.5" height="68" filterUnits="userSpaceOnUse" color-interpolation-filters="sRGB"><feFlood flood-opacity="0" result="BackgroundImageFix"/><feColorMatrix in="SourceAlpha" values="0 0 0 0 0 0 0 0 0 0 0 0 0 0 0 0 0 0 127 0" result="hardAlpha"/><feOffset dy="4"/><feGaussianBlur stdDeviation="2"/><feColorMatrix values="0 0 0 0 0 0 0 0 0 0 0 0 0 0 0 0 0 0 0.02 0"/><feBlend in2="BackgroundImageFix" result="effect1_dropShadow_1904_319"/><feBlend in="SourceGraphic" in2="effect1_dropShadow_1904_319" result="shape"/></filter><filter id="filter1_d_1904_319" x="1.5" y="4.5" width="72.5" height="68" filterUnits="userSpaceOnUse" color-interpolation-filters="sRGB"><feFlood flood-opacity="0" result="BackgroundImageFix"/><feColorMatrix in="SourceAlpha" values="0 0 0 0 0 0 0 0 0 0 0 0 0 0 0 0 0 0 127 0" result="hardAlpha"/><feOffset dy="4"/><feGaussianBlur stdDeviation="2"/><feColorMatrix values="0 0 0 0 0 0 0 0 0 0 0 0 0 0 0 0 0 0 0.02 0"/><feBlend in2="BackgroundImageFix" result="effect1_dropShadow_1904_319"/><feBlend in="SourceGraphic" in2="effect1_dropShadow_1904_319" result="shape"/></filter><filter id="filter2_d_1904_319" x=".5" y=".5" width="70" height="70" filterUnits="userSpaceOnUse" color-interpolation-filters="sRGB"><feFlood flood-opacity="0" result="BackgroundImageFix"/><feColorMatrix in="SourceAlpha" values="0 0 0 0 0 0 0 0 0 0 0 0 0 0 0 0 0 0 127 0" result="hardAlpha"/><feOffset dy="1"/><feGaussianBlur stdDeviation="2.5"/><feComposite in2="hardAlpha" operator="out"/><feColorMatrix values="0 0 0 0 0 0 0 0 0 0 0 0 0 0 0 0 0 0 0.15 0"/><feBlend in2="BackgroundImageFix" result="effect1_dropShadow_1904_319"/><feBlend in="SourceGraphic" in2="effect1_dropShadow_1904_319" result="shape"/></filter><radialGradient id="paint0_radial_1904_319" cx="0" cy="0" r="1" gradientUnits="userSpaceOnUse" gradientTransform="matrix(-45.86066 -11.05505 14.7177 -61.05474 53.4 40.295)"><stop offset=".107" stop-color="#E3E3E4" stop-opacity="0"/><stop offset=".228" stop-color="#E3E3E4" stop-opacity="0"/><stop offset=".6" stop-color="#E3E3E4" stop-opacity=".08"/><stop offset=".874" stop-color="#E3E3E4" stop-opacity=".6"/><stop offset="1" stop-color="#E3E3E4"/></radialGradient></defs></svg>