<svg width="41" height="28" fill="none" xmlns="http://www.w3.org/2000/svg"><path fill="#006DF0" d="M1.967 1.397h37.712v24.3H1.967z"/><path fill-rule="evenodd" clip-rule="evenodd" d="M1 3.831C1 2.272 2.289 1 3.869 1h34c1.58 0 2.869 1.272 2.869 2.831V24.17c0 1.559-1.29 2.831-2.869 2.831h-34C2.289 27 1 25.728 1 24.169V3.83Zm2.869-1.236A1.25 1.25 0 0 0 2.616 3.83V24.17a1.25 1.25 0 0 0 1.253 1.236h34a1.25 1.25 0 0 0 1.253-1.236V3.83a1.25 1.25 0 0 0-1.253-1.236h-34Z" fill="#006DF0" stroke="#006DF0" stroke-width=".3" stroke-miterlimit="10"/><path fill-rule="evenodd" clip-rule="evenodd" d="M5.46 13.42a1.07 1.07 0 0 0 1.078 1.063h4.309a1.07 1.07 0 0 0 1.077-1.063v-3.189a1.07 1.07 0 0 0-1.077-1.063H6.538a1.07 1.07 0 0 0-1.077 1.063v3.19Z" fill="#fff"/></svg>