<svg width="74" height="73" fill="none" xmlns="http://www.w3.org/2000/svg"><g filter="url('#filter0_d_1904_286')"><g filter="url('#filter1_d_1904_286')"><mask id="mask0_1904_286" style="mask-type:alpha" maskUnits="userSpaceOnUse" x="-1" y="-3" width="76" height="75"><circle cx="37" cy="34.5" r="37.5" fill="#C4C4C4"/></mask><g mask="url('#mask0_1904_286')"><g filter="url('#filter2_d_1904_286')"><circle cx="35.5" cy="34.5" r="30" fill="#fff"/></g><path opacity=".4" d="M65.563 50.395c8.667-11.596 4.248-29.12-9.87-39.14-14.117-10.021-32.589-8.745-41.256 2.85-8.667 11.596-4.248 29.12 9.87 39.14 14.118 10.021 32.589 8.745 41.256-2.85Z" fill="url('#paint0_radial_1904_286')"/></g><mask id="mask1_1904_286" style="mask-type:alpha" maskUnits="userSpaceOnUse" x="20" y="19" width="33" height="31"><path fill="#C4C4C4" d="M20.5 19.5h32.081v29.745H20.5z"/></mask><g mask="url('#mask1_1904_286')" stroke="#000" stroke-width="1.5" stroke-miterlimit="10" stroke-linejoin="round"><path d="M32.914 21.5c-5.659 0-10.252 4.593-10.252 10.252"/><path d="M32.914 21.5h5.495c5.425 0 9.87 4.22 10.23 9.556a.735.735 0 0 0 .72.696c.62 0 .93.75.492 1.19l-3.194 3.194a1 1 0 0 1-1.409.006l-3.257-3.206a.691.691 0 0 1 .484-1.184c.382 0 .694-.31.668-.69-.355-5.338-4.802-9.562-10.229-9.562ZM38.41 47.5c5.659 0 10.252-4.594 10.252-10.253M38.41 47.5c-5.426 0-9.871-4.22-10.23-9.555a.662.662 0 0 1 .674-.697c.62 0 .931-.75.492-1.19l-3.189-3.188a1 1 0 0 0-1.414 0l-3.188 3.189a.697.697 0 0 0 .492 1.189c.385 0 .694.313.72.697.359 5.334 4.804 9.555 10.23 9.555h5.412ZM32.832 36.92c0 1.477 1.23 2.707 2.707 2.707 1.476 0 2.706-1.23 2.706-2.706 0-2.707-4.92-2.707-4.92-5.331 0-1.23.737-2.215 2.214-2.215 1.476 0 2.214 1.148 2.214 2.215M35.457 41.842v-2.215M35.457 29.375v-2.297"/></g></g></g><defs><filter id="filter0_d_1904_286" x="1.5" y="4.5" width="72.5" height="68" filterUnits="userSpaceOnUse" color-interpolation-filters="sRGB"><feFlood flood-opacity="0" result="BackgroundImageFix"/><feColorMatrix in="SourceAlpha" values="0 0 0 0 0 0 0 0 0 0 0 0 0 0 0 0 0 0 127 0" result="hardAlpha"/><feOffset dy="4"/><feGaussianBlur stdDeviation="2"/><feColorMatrix values="0 0 0 0 0 0 0 0 0 0 0 0 0 0 0 0 0 0 0.02 0"/><feBlend in2="BackgroundImageFix" result="effect1_dropShadow_1904_286"/><feBlend in="SourceGraphic" in2="effect1_dropShadow_1904_286" result="shape"/></filter><filter id="filter1_d_1904_286" x="1.5" y="4.5" width="72.5" height="68" filterUnits="userSpaceOnUse" color-interpolation-filters="sRGB"><feFlood flood-opacity="0" result="BackgroundImageFix"/><feColorMatrix in="SourceAlpha" values="0 0 0 0 0 0 0 0 0 0 0 0 0 0 0 0 0 0 127 0" result="hardAlpha"/><feOffset dy="4"/><feGaussianBlur stdDeviation="2"/><feColorMatrix values="0 0 0 0 0 0 0 0 0 0 0 0 0 0 0 0 0 0 0.02 0"/><feBlend in2="BackgroundImageFix" result="effect1_dropShadow_1904_286"/><feBlend in="SourceGraphic" in2="effect1_dropShadow_1904_286" result="shape"/></filter><filter id="filter2_d_1904_286" x=".5" y=".5" width="70" height="70" filterUnits="userSpaceOnUse" color-interpolation-filters="sRGB"><feFlood flood-opacity="0" result="BackgroundImageFix"/><feColorMatrix in="SourceAlpha" values="0 0 0 0 0 0 0 0 0 0 0 0 0 0 0 0 0 0 127 0" result="hardAlpha"/><feOffset dy="1"/><feGaussianBlur stdDeviation="2.5"/><feComposite in2="hardAlpha" operator="out"/><feColorMatrix values="0 0 0 0 0 0 0 0 0 0 0 0 0 0 0 0 0 0 0.15 0"/><feBlend in2="BackgroundImageFix" result="effect1_dropShadow_1904_286"/><feBlend in="SourceGraphic" in2="effect1_dropShadow_1904_286" result="shape"/></filter><radialGradient id="paint0_radial_1904_286" cx="0" cy="0" r="1" gradientUnits="userSpaceOnUse" gradientTransform="matrix(-45.86066 -11.05505 14.7177 -61.05474 53.4 40.295)"><stop offset=".107" stop-color="#E3E3E4" stop-opacity="0"/><stop offset=".228" stop-color="#E3E3E4" stop-opacity="0"/><stop offset=".6" stop-color="#E3E3E4" stop-opacity=".08"/><stop offset=".874" stop-color="#E3E3E4" stop-opacity=".6"/><stop offset="1" stop-color="#E3E3E4"/></radialGradient></defs></svg>