<svg width="265" height="51" fill="none" xmlns="http://www.w3.org/2000/svg"><path d="M49.64 21.711v-7.217H28.094c-6.287 0-9.805 3.785-9.805 9.285V28.4H8.925V18.28c0-7.085.704-10.474 8.706-10.474h31.964V.5H12.883C4.835.5 0 5.869 0 13.702v36.437h8.925V35.617h9.365V50.14h8.97V35.617h22.335V28.4H27.26v-2.42c0-2.993.483-4.269 4.66-4.269h17.72ZM96.995 23.778c-.66-1.392-1.013-2.131-1.453-3.175-.397 1.087-.617 1.435-1.365 3.262l-1.541 3.741h6.076l-1.717-3.828Zm-6.12 8.483-2.157 4.741h-6.34l11.05-22.968h5.328l11.05 22.968h-6.251l-2.334-4.741H90.875Zm34.737-8.266c1.277 0 1.849-.086 2.378-.348a2.681 2.681 0 0 0 1.364-2.348c0-.957-.528-1.828-1.364-2.35-.529-.26-1.057-.348-2.378-.348h-7.749v5.351h7.749v.043Zm-7.749 13.007h-5.811V14.034h15.145c2.686 0 4.183.348 5.547 1.175 1.762 1.13 2.862 3.044 2.862 5.133 0 2.74-1.453 4.741-4.05 5.829 2.289.783 2.994 2.088 3.082 5.655.132 2.87.264 3.697 1.012 5.176h-6.428c-.44-1.261-.528-1.827-.44-4.002 0-3.35-.925-4.35-3.918-4.35h-6.957l-.044 8.352Zm44.952 0V14.034h21.265v4.655h-15.454v4.306h13.649v4.655h-13.649v4.741h15.454v4.655l-21.265-.044Zm38.171 0h-5.811V18.688h-8.057v-4.654h21.881v4.655h-8.013v18.313Zm36.542-9.004c-1.673 6.525-6.207 9.83-13.692 9.83-8.541 0-13.956-4.697-13.956-12.093 0-7.569 5.547-12.527 14.088-12.527 4.095 0 7.265 1.043 9.818 3.306 1.717 1.435 2.906 3.349 3.39 5.524h-6.296c-1.188-2.915-3.478-4.35-6.956-4.35-4.667 0-7.925 3.263-7.925 7.917 0 4.568 3.214 7.743 7.793 7.743 3.698 0 5.944-1.653 7.264-5.35h6.472Zm20.737-13.964v8.961H246.29v-8.961h-5.812v22.968h5.812V27.65h11.975v9.352h5.812V14.034h-5.812ZM63.535 37.002V14.034h20.384v4.655H69.346v4.306H82.73v4.655H69.346v9.352h-5.812Zm75.857 0V14.034h20.385v4.655h-14.529v4.306h13.384v4.655h-13.384v9.352h-5.856Z" fill="#fff"/></svg>