<svg width="100" height="84" fill="none" xmlns="http://www.w3.org/2000/svg"><path fill-rule="evenodd" clip-rule="evenodd" d="M1.006 57.887h93.612v-1.006H1.006v1.006ZM9.172 73.23a2.602 2.602 0 0 1-.672.972 2.87 2.87 0 0 1-1.041.587 4.32 4.32 0 0 1-1.344.199h-4.03v-6.219h4.03c.492 0 .94.064 1.344.193.403.128.751.322 1.041.581.29.26.514.585.672.972.157.389.236.84.236 1.353 0 .52-.08.974-.236 1.362Zm.584-4.708a4.476 4.476 0 0 0-1.543-.923 5.775 5.775 0 0 0-1.966-.324H1.412c-.132 0-.268.01-.407.027a.67.67 0 0 0-.385.203.654.654 0 0 0-.204.385 3.064 3.064 0 0 0-.027.406v13.57c0 .22.009.38.027.483.018.102.06.204.126.307a.75.75 0 0 0 .282.253.85.85 0 0 0 .413.1.849.849 0 0 0 .412-.1.75.75 0 0 0 .281-.253.836.836 0 0 0 .127-.307c.018-.102.028-.264.028-.483v-5.384h4.162c.713 0 1.367-.11 1.966-.33a4.488 4.488 0 0 0 1.543-.934c.429-.402.763-.888 1.002-1.455a4.85 4.85 0 0 0 .358-1.895 4.85 4.85 0 0 0-.358-1.896 4.16 4.16 0 0 0-1.002-1.45ZM19.956 74.504h-4.184V68.77h4.184c.455 0 .876.061 1.261.182.386.12.716.302.992.544.276.24.49.541.644.9.154.36.231.777.231 1.252 0 .477-.077.894-.23 1.253-.155.359-.37.658-.645.895a2.692 2.692 0 0 1-.992.533 4.287 4.287 0 0 1-1.26.176Zm4.648 6.977-3.25-5.658c.507-.11.97-.283 1.39-.516.417-.235.78-.53 1.084-.886.305-.355.54-.767.705-1.235.165-.47.247-.99.247-1.56 0-.674-.113-1.28-.341-1.819a3.825 3.825 0 0 0-.964-1.368 4.337 4.337 0 0 0-1.482-.862 5.63 5.63 0 0 0-1.882-.302H15.1c-.133 0-.269.01-.408.027a.671.671 0 0 0-.386.203.663.663 0 0 0-.203.385 3.068 3.068 0 0 0-.028.406v13.57c0 .22.01.38.028.483a.839.839 0 0 0 .127.307c.066.103.16.188.28.253.122.066.26.1.413.1a.854.854 0 0 0 .413-.1.754.754 0 0 0 .28-.253.841.841 0 0 0 .129-.307c.017-.102.027-.263.027-.483v-5.89h3.732l3.635 6.34c.103.183.22.344.347.483a.663.663 0 0 0 .512.21c.147 0 .29-.041.43-.121.286-.162.43-.378.43-.649 0-.11-.017-.22-.05-.329a2.12 2.12 0 0 0-.204-.429ZM37.106 68.77c.214 0 .368-.01.464-.029a.755.755 0 0 0 .264-.104c.212-.14.32-.344.32-.616a.688.688 0 0 0-.32-.614.738.738 0 0 0-.264-.105 2.732 2.732 0 0 0-.464-.027h-7.753c-.132 0-.268.009-.407.027a.66.66 0 0 0-.386.203.654.654 0 0 0-.203.385c-.019.14-.028.274-.028.406v13.603c0 .132.009.266.027.406a.657.657 0 0 0 .204.384.66.66 0 0 0 .386.204c.14.018.275.027.407.027h7.753c.214 0 .368-.009.464-.028a.74.74 0 0 0 .264-.104.689.689 0 0 0 .32-.614.69.69 0 0 0-.32-.617.769.769 0 0 0-.264-.104 2.831 2.831 0 0 0-.464-.027h-7.081v-5.647h5.882c.212 0 .367-.01.462-.028a.754.754 0 0 0 .264-.104c.213-.14.32-.344.32-.616a.689.689 0 0 0-.32-.615.77.77 0 0 0-.264-.105 2.813 2.813 0 0 0-.462-.027h-5.882v-5.515h7.081ZM54.495 67.44a.736.736 0 0 0-.281-.192 1.018 1.018 0 0 0-.606-.027.93.93 0 0 0-.225.098c-.162.095-.313.29-.452.582l-4.89 10.526L43.15 67.9c-.14-.293-.29-.487-.452-.582a.92.92 0 0 0-.226-.099 1.012 1.012 0 0 0-.605.028.727.727 0 0 0-.28.192.785.785 0 0 0-.21.35c-.037.133-.055.29-.055.473v13.603c0 .22.008.38.028.484.017.102.06.204.126.306a.75.75 0 0 0 .281.253c.12.066.259.1.412.1a.848.848 0 0 0 .413-.1.755.755 0 0 0 .282-.253.852.852 0 0 0 .127-.306c.018-.103.027-.265.027-.484V71.132l4.042 8.68c.117.248.248.44.391.576.144.136.34.203.589.203.25 0 .446-.067.59-.203.143-.136.273-.328.39-.577l4.042-8.68v10.735c0 .22.01.38.028.484.018.102.06.204.126.306.067.103.16.188.282.253.12.066.258.1.412.1a.848.848 0 0 0 .413-.1.755.755 0 0 0 .281-.253.85.85 0 0 0 .127-.306c.017-.103.027-.265.027-.484V68.263c0-.182-.018-.34-.055-.472a.793.793 0 0 0-.209-.351ZM60.596 67.539a.746.746 0 0 0-.281-.253.85.85 0 0 0-.413-.099.848.848 0 0 0-.413.1.753.753 0 0 0-.281.252.846.846 0 0 0-.127.307 3.114 3.114 0 0 0-.027.483v13.537c0 .22.01.38.027.484a.85.85 0 0 0 .127.306c.066.103.16.188.28.253.121.066.259.1.414.1a.85.85 0 0 0 .413-.1.749.749 0 0 0 .28-.253.85.85 0 0 0 .127-.306c.019-.103.028-.265.028-.484V68.329c0-.22-.01-.38-.028-.483a.846.846 0 0 0-.126-.307ZM75.677 67.539a.746.746 0 0 0-.28-.253.848.848 0 0 0-.413-.099.852.852 0 0 0-.414.1.752.752 0 0 0-.281.252.846.846 0 0 0-.127.307 3.117 3.117 0 0 0-.027.483v9.296a4.51 4.51 0 0 1-.275 1.614c-.183.484-.44.898-.771 1.242-.33.345-.73.61-1.2.797-.47.186-.992.28-1.564.28a4.166 4.166 0 0 1-1.559-.28 3.369 3.369 0 0 1-1.195-.797 3.55 3.55 0 0 1-.766-1.242 4.6 4.6 0 0 1-.27-1.614V68.33c0-.22-.008-.38-.027-.483a.846.846 0 0 0-.126-.307.746.746 0 0 0-.281-.253.853.853 0 0 0-.413-.099.848.848 0 0 0-.413.1.752.752 0 0 0-.281.252.844.844 0 0 0-.127.307 3.114 3.114 0 0 0-.027.483v9.428c0 .783.136 1.499.407 2.148a4.87 4.87 0 0 0 1.14 1.67 5.205 5.205 0 0 0 1.74 1.087 6.05 6.05 0 0 0 2.198.39 6.09 6.09 0 0 0 2.202-.39 5.21 5.21 0 0 0 1.746-1.088 4.953 4.953 0 0 0 1.146-1.669c.275-.649.412-1.365.412-2.148v-9.428c0-.22-.009-.38-.027-.483a.83.83 0 0 0-.127-.307ZM93.089 67.44a.737.737 0 0 0-.281-.192 1.017 1.017 0 0 0-.605-.027.93.93 0 0 0-.226.098c-.162.095-.313.29-.452.582l-4.89 10.526-4.89-10.526c-.14-.293-.29-.487-.451-.582a.936.936 0 0 0-.226-.099 1.017 1.017 0 0 0-.607.028.728.728 0 0 0-.28.192.793.793 0 0 0-.21.35c-.036.133-.054.29-.054.473v13.603c0 .22.009.38.027.484.018.102.06.204.127.306.066.103.16.188.28.253.122.066.26.1.413.1a.851.851 0 0 0 .414-.1.756.756 0 0 0 .281-.253.864.864 0 0 0 .126-.306c.018-.103.028-.265.028-.484V71.132l4.042 8.68c.117.248.248.44.39.576.144.136.34.203.59.203.25 0 .446-.067.589-.203.143-.136.274-.328.391-.577l4.042-8.68v10.735c0 .22.009.38.027.484a.85.85 0 0 0 .127.306c.067.103.16.188.282.253.12.066.258.1.412.1a.848.848 0 0 0 .413-.1.755.755 0 0 0 .281-.253.85.85 0 0 0 .127-.306c.017-.103.027-.265.027-.484V68.263c0-.182-.018-.34-.055-.472a.793.793 0 0 0-.21-.351ZM10.053 47.278c2.532 0 5.58-.987 7.41-3.61v1.743c0 1.035.848 1.882 1.885 1.882a1.889 1.889 0 0 0 1.885-1.882v-7.227c0-1.035-.848-1.88-1.885-1.88-.029 0-.055.006-.084.008-.029-.002-.055-.009-.083-.009h-6.446a1.89 1.89 0 0 0-1.885 1.88c0 1.035.85 1.881 1.885 1.881h2.655c-.088.294-.27.66-.532 1.041-.738 1.076-2.498 2.272-4.103 2.272-4.135 0-6.043-3.329-6.043-7.435 0-4.107 2.721-7.281 6.857-7.281 1.332 0 2.347.218 3.358.798.366.21.734.448 1.099.68l1.137.874c.822.63 2.01.478 2.644-.342.57-.738.413-1.766-.124-2.43-.866-1.047-1.887-1.697-1.887-1.697a11.416 11.416 0 0 0-6.382-1.937C5.11 24.607 0 29.682 0 35.942c0 6.26 3.749 11.336 10.053 11.336ZM30.766 33.207c1.936 0 3.505 1.388 3.505 3.346 0 .054-.042.07-.042.07h-6.911c-.075 0-.057-.07-.057-.07 0-1.958 1.57-3.346 3.505-3.346Zm-4.145 12.84c4.62 2.804 9.305 0 9.305 0 1.44-.681 2.514-2.007 1.768-3.14-.605-.922-1.861-.474-2.158-.349-.297.124-2 .966-4.34.966-3.544 0-3.91-2.998-3.917-3.427-.006-.437.019-.406.019-.406h8.582c2.619 0 2.357-2.57 2.357-2.57 0-3.286-1.998-7.38-7.464-7.38-5.464 0-7.3 4.453-7.596 6.152-.296 1.697-1.178 7.35 3.444 10.153ZM40.757 33.408h.782V42.3c0 .637.093 1.253.277 1.85.185.598.48 1.132.89 1.602.409.467.932.842 1.571 1.122.638.28 1.41.418 2.318.418h.236c.425 0 .782-.025 1.074-.075.29-.05.531-.125.722-.227.257-.133.468-.328.63-.585.162-.257.243-.582.243-.972 0-.392-.078-.715-.235-.972a1.54 1.54 0 0 0-.638-.586 2.303 2.303 0 0 0-.588-.185 9.083 9.083 0 0 0-.721-.083 1.67 1.67 0 0 1-.69-.152c-.18-.088-.322-.2-.428-.335a1.217 1.217 0 0 1-.227-.477 2.409 2.409 0 0 1-.067-.578v-8.657h.799c.92 0 1.673-.75 1.673-1.67v-.062c0-.92-.753-1.67-1.673-1.67H45.9V26.8a2.176 2.176 0 0 0-2.171-2.167 2.176 2.176 0 0 0-2.173 2.167v3.206h-.799c-.92 0-1.674.75-1.674 1.67v.062c0 .92.754 1.67 1.674 1.67ZM51.305 33.408h.782V42.3c0 .637.092 1.253.277 1.85.185.598.48 1.132.89 1.602.408.467.932.842 1.57 1.122.639.28 1.412.418 2.32.418h.234c.425 0 .783-.025 1.075-.075.29-.05.531-.125.722-.227.257-.133.468-.328.63-.585.162-.257.243-.582.243-.972 0-.392-.078-.715-.235-.972a1.54 1.54 0 0 0-.638-.586 2.3 2.3 0 0 0-.589-.185 9.01 9.01 0 0 0-.72-.083 1.671 1.671 0 0 1-.69-.152 1.21 1.21 0 0 1-.428-.335 1.206 1.206 0 0 1-.227-.477 2.409 2.409 0 0 1-.067-.578v-8.657h.799c.92 0 1.673-.75 1.673-1.67v-.062c0-.92-.753-1.67-1.673-1.67h-.805V26.8a2.176 2.176 0 0 0-2.172-2.167 2.176 2.176 0 0 0-2.172 2.167v3.206h-.799c-.92 0-1.674.75-1.674 1.67v.062c0 .92.754 1.67 1.674 1.67ZM97.412 22.617a2.167 2.167 0 0 1-2.166-2.161 2.168 2.168 0 0 1 4.335 0 2.168 2.168 0 0 1-2.169 2.161Zm0-4.742a2.585 2.585 0 0 0-2.587 2.58c.001 1.425 1.16 2.58 2.587 2.58a2.585 2.585 0 0 0 2.589-2.58 2.584 2.584 0 0 0-2.589-2.58Z" fill="#fff"/><path fill-rule="evenodd" clip-rule="evenodd" d="M97.288 20.177h-.403v-.684h.425c.221 0 .354.003.399.01.088.014.157.05.205.106.05.055.072.128.072.219a.345.345 0 0 1-.054.201.296.296 0 0 1-.154.115c-.065.022-.228.033-.49.033Zm.84.592a1.314 1.314 0 0 0-.292-.226c.237-.034.415-.117.535-.25a.72.72 0 0 0 .178-.5.763.763 0 0 0-.118-.425.622.622 0 0 0-.315-.258c-.13-.05-.34-.073-.629-.073H96.34v2.696h.546v-1.126h.11c.126 0 .217.01.276.03.057.022.111.058.163.113.052.054.147.186.288.396l.394.587h.652l-.33-.526a3.051 3.051 0 0 0-.31-.438ZM80.526 43.795c.232 1.065.674 1.752 1.007 3.02h-3.02c.55-1.177.956-1.969 2.013-3.02Zm-11.072 4.027h20.132c2.31 0 4.026-1.713 4.026-4.027V23.664c0-2.385-1.716-4.098-4.026-4.027h-3.02c.325.177.277.425 0 1.007h3.02c1.903-.318 3.268 1.05 3.02 3.02v20.131c.248 1.898-1.117 3.274-3.02 3.02h-3.02c-.09-3.579-.201-5.451-1.007-10.066.534-.154.758-.234 1.007 0-.96-3.611-1.335-12.854 0-18.118-.098-.13.868-2.57 1.007-4.027-.139-.231.029-.855 0-2.013.244.35.827-1.075 1.006-3.02.627-.92.859-2.384 1.007-2.013V6.552c.227-.493.514-.782 1.006-1.007-.037-.447.139-.83 0-1.007.242.032.139.176 0 0 .626-.208.881-.288 1.007 0h1.007c.016-.496.392-.56 0-1.006-.263.07.28.046 0 0-.263.07-1.548.214-2.014 0 .346.062 1.847-1.018 2.014-1.007-.167-.011.232-.348 0-1.006-.047.194-.518.546-1.007 1.006.489-.46-.972.549-1.007 1.007-.197-.442.977-2.075 1.007-2.013-.03-.062.32-.558 0-1.007-.405.473-.054.033 0 0-.405.473-1.675 2.018-2.013 2.013.107.06.219.149 0 0 .011-.26-.029-.107 0 0V.512c.195.097.203.385 0 0-.428.265-.316-.079 0 0l-1.007 2.013c.068.213-.195.629-1.006 1.007-.187-.346.188-.154 0 0-.187-.346-.442-.666-1.007-1.007-.146.005.11.029 0 0-.146.005-.6-.027-1.007 0 .446.469.127.325 0 0 .446.469.814.653 1.007 1.007.174.31.15.054 0 0 .174.31.126.47 0 1.006.5.064.932.536 1.007 1.007.053-.263-.075-.47 0 0 .077.586.045.65 0 1.007l-1.007 2.013c.094.15-.29.91-1.007 2.013-.096.786-.543 1.946-1.006 2.013.223.445-.08.886 0 1.007-.647.943-1.461 1.47-1.007 2.013-.518-.438-1.396-.294-2.013 0-.389 1.066-.987 1.194-1.007 1.006-.124.156-.348-.652 0-1.006-.491-.31-.5-.15 0 0-.491-.31-.012-.79 0-1.007-.036-.167-.1-1.816 0-2.013-.587-.555-.707-1.043-1.006-1.006.204-.445.004-.933 0-1.007-.331-.214-.73-.518-1.007-1.007-.003.008.18.337 0 0-.474-.224-.426-.392-1.006-1.006.101.27.26.286 0 0 .26.382.101.27 0 0V9.57c-.234-.456.045-.392 0 0-.505-.36-.665-.264-1.007 0 .15-.48.342-.264 0 0-.025-.384-.528-.248 0 0-.121-.12-.025-.128 0 0-.177-.12-.432.128-1.006 0 .039.337.239.112 0 0-.464.369-.368.4 0 1.007-.544-.334-.632-.286-1.007 0 .104.274.28.002 0 0-.08.186-.016.178 0 0 .136-.078.08-.07 0 0-.135-.126.136-.078 0 0-.111.234-.51.322-1.007 0 .52.466.624.386 1.007 0v1.007c-.455-.245-.399-.477 0 0-.439.107-.51-.005-1.007 0 .425.019.201.635 0 1.006.153-.059.201-.043 0 0 .137.077.13-.027 0 0 .225.205.002.173 0 0 .185.67-.062.862 0 1.007.225-.042.353.375 0 1.006.4-.447.377-.32 0 0v-1.006c.425.479.616.927 1.007 1.006.607 1.001 1.613 1.617 2.013 2.014-.32-.045-.073 1.396 0 2.013h-1.006c.103-.01.215-.201 0 0-.36.407-.089.167 0 0l-1.007 1.006c.16-.23.24-.295 0 0-.814.441-1.788.801-2.013 2.013-1.467.7-1.65 2.101-2.013 4.027-.148.467.123.45 0 1.006v4.027c-.531.963-1.066 2.212-1.007 3.02-.171 2.2-.011 5.233 0 5.032-.011.201.085 1.634 0 2.014.316.644 1.042 1.404 1.007 1.006l1.006 1.007c.434-.177.65-.113 1.007 0-.325-.497-.437-.625 0-1.007-.421.222-.437.382 0 0-.549.062-1.204-.218-1.007 0l-1.006-1.006c.363.02.339-.556 0-1.007.426.123.834.187 1.006 0-.109.387.203.835 1.007 1.007-.27-.188-.206-.044 0 0-.373-.588-.804-1.125-1.007-1.007.099-.742-.093-1.11 0-1.007-.492-.495-.308-.39 0 0l-1.006-1.006c.395.383 1.16-2.258 2.013-4.027-.254-.64-.11-1.792 0-2.013-.102-.21-.094-.539 0-1.006.497-.573 1.135-2.87 1.006-3.02h1.007c-.143 1.655.024 2.863 0 4.026.04 5.375-1.141 9.776-1.007 15.1h-4.026c-1.903.253-3.276-1.123-3.02-3.02V23.663c-.256-1.97 1.117-3.338 3.02-3.02h2.013c.722-.622 1.089-.854 1.007-1.007h-3.02c-2.318-.07-4.026 1.642-4.026 4.027v20.131c0 2.314 1.708 4.027 4.026 4.027Z" fill="#fff"/></svg>