<svg width="88" height="62" fill="none" xmlns="http://www.w3.org/2000/svg"><path d="M24.296 16.39c-1.69 10.175-2.88 19.22-3.757 27.698l-2.067-.126a2.187 2.187 0 0 1-1.628-.879c-.42-.58-.6-1.3-.5-2.01.876-8.479 2.191-17.397 3.944-27.258l2.255-.126a1.625 1.625 0 0 1 1.377.691 2.641 2.641 0 0 1 .376 2.01Zm63.683 6.658c-.188 1.319-.376 2.638-.564 3.894h-3.068a1.188 1.188 0 0 1-1.127-1.194c.015-.234.058-.466.125-.69a.378.378 0 0 0-.063-.314.376.376 0 0 0-.313-.189h-3.444a.375.375 0 0 0-.376.314l-.688 4.082a.441.441 0 0 0 .062.315l.313.125h5.761a1.935 1.935 0 0 1 1.566.691 2.073 2.073 0 0 1 .438 1.822 54.602 54.602 0 0 1-1.503 8.353c-.376 1.444-1.69 2.763-2.943 2.889-3.882.44-8.39.69-8.39.69a1.687 1.687 0 0 1-1.504-.69 2.452 2.452 0 0 1-.375-1.884l.751-4.585 3.256-.126a1.062 1.062 0 0 1 .946.717c.045.133.065.273.056.414a5.968 5.968 0 0 1-.125.816.441.441 0 0 0 .125.314l.313.126 3.444-.189a.375.375 0 0 0 .376-.314c.125-.69.5-2.889.689-3.956a.44.44 0 0 0-.063-.315l-.313-.125h-5.636a1.997 1.997 0 0 1-1.582-.67 2.014 2.014 0 0 1-.484-1.654c.25-2.324 1.315-9.044 1.378-9.484a2.641 2.641 0 0 1 .787-1.703 2.626 2.626 0 0 1 1.717-.746c2.741.03 5.48.197 8.203.502a2.878 2.878 0 0 1 1.754 1.005 2.264 2.264 0 0 1 .5 1.759Zm-18.974 18.34c-.25 1.444-1.503 2.7-2.755 2.763l-8.39.377h-.063a1.749 1.749 0 0 1-1.44-.754 2.77 2.77 0 0 1-.376-2.01c1.315-8.667 2.317-15.89 3.13-22.61h2.13a2 2 0 0 1 1.565.816c.43.599.61 1.343.501 2.073-.689 5.338-1.44 10.865-2.38 16.895a.378.378 0 0 0 .063.314l.25.125 3.32-.125a.375.375 0 0 0 .375-.314c.94-6.03 1.753-11.62 2.442-17.02.03-.664.3-1.293.763-1.768a2.689 2.689 0 0 1 1.742-.808l2.317.126a371.453 371.453 0 0 1-3.194 21.92ZM6.888 24.491a.375.375 0 0 0-.376.314c-.187.88-1.816 12.122-1.878 13.504a.378.378 0 0 0 .376.44l3.82.25a.375.375 0 0 0 .375-.313c.188-1.068.689-3.769.751-4.271a.378.378 0 0 0-.062-.314l-.25-.126h-.752a.999.999 0 0 1-.689-.377 1.32 1.32 0 0 1-.313-1.005c.125-1.067.313-2.01.438-3.077h5.198a1.247 1.247 0 0 1 1.002.314 1.323 1.323 0 0 1 .187 1.005c-.062.628-.939 7.913-1.377 10.551-.25 1.696-1.002 2.387-2.442 2.387h-.126a66.671 66.671 0 0 1-8.328-.816 3.001 3.001 0 0 1-1.816-.817A3.65 3.65 0 0 1 0 40.068c0-1.884 1.002-10.363 2.254-17.209.25-1.382 1.942-2.638 3.257-2.763 2.817-.314 6.387-.44 8.516-.44a1.874 1.874 0 0 1 1.565.691 2.64 2.64 0 0 1 .376 2.01l-.752 4.522h-3.13a1.188 1.188 0 0 1-1.128-1.193l.188-1.257H6.888v.063Zm27.427-.502h-3.57a.375.375 0 0 0-.375.314c-.188 1.005-1.816 13.315-1.941 14.822a.378.378 0 0 0 .062.314l.25.126h3.507a.375.375 0 0 0 .376-.314c.063-1.005 1.753-13.315 2.004-14.823a.378.378 0 0 0-.063-.314l-.25-.125Zm5.135-2.136a2056.955 2056.955 0 0 0-2.693 20.099c-.188 1.507-1.315 2.7-2.505 2.7h-.062l-8.329-.25a2.126 2.126 0 0 1-1.628-.88 2.833 2.833 0 0 1-.5-2.01 421.034 421.034 0 0 1 2.63-19.596c.25-1.507 1.44-2.763 2.755-2.763l8.453-.126a1.81 1.81 0 0 1 1.503.817 2.96 2.96 0 0 1 .376 2.01Zm16.155.063c-.751 5.904-1.628 12.247-2.755 19.973-.25 1.57-1.378 2.763-2.63 2.763h-8.391a1.937 1.937 0 0 1-1.566-.816 2.96 2.96 0 0 1-.438-2.136c.814-6.532 3.444-25.625 3.82-28.703h2.129a1.874 1.874 0 0 1 1.503.817c.412.63.569 1.394.438 2.136l-.25 2.512a.378.378 0 0 0 .062.314l.25.125h5.824a1.937 1.937 0 0 1 1.566.817c.45.637.63 1.428.5 2.198h-.062Zm-5.01 2.073h-3.569a.375.375 0 0 0-.375.314l-2.004 14.948a.378.378 0 0 0 .062.314l.25.125h3.508a.375.375 0 0 0 .375-.314c.126-.879 1.879-13.503 2.067-14.948a.377.377 0 0 0-.063-.314l-.25-.125ZM34.314 5.838a39.675 39.675 0 0 0-5.197 1.696c.994.468 2.02.867 3.068 1.194.814-1.131 1.565-2.136 2.129-2.89ZM61.052 7.66a39.868 39.868 0 0 0-5.636-1.884c.564.753 1.378 1.821 2.317 3.14a24.937 24.937 0 0 0 3.319-1.193V7.66Zm-4.258 1.507c-1.315-1.884-2.38-3.203-2.818-3.768a43.267 43.267 0 0 0-8.516-.817v4.522a6.437 6.437 0 0 1 4.007 1.445 41.597 41.597 0 0 0 7.327-1.319v-.063Zm-23.732-.125a40.71 40.71 0 0 0 7.639 1.381c1.064-1.444 3.006-1.444 3.757-1.444h.125V4.582a43.33 43.33 0 0 0-8.829.942 44.996 44.996 0 0 0-2.63 3.58l-.063-.062Zm6.574 5.715c.126-.69.25-1.57.313-2.324.042-.364.126-.723.251-1.067a40.656 40.656 0 0 1-7.702-1.445 55.29 55.29 0 0 0-3.006 5.087l10.144-.251ZM59.361 48.61l-4.195.126-9.706.125v1.633a45.27 45.27 0 0 1 11.772 1.508c.689-1.005 1.378-2.136 2.13-3.392Zm-9.017-37.245a6.732 6.732 0 0 1 1.315 3.392h3.131l5.51.126a52.48 52.48 0 0 0-2.88-4.9 41.653 41.653 0 0 1-7.076 1.383Zm10.958 3.643 11.209.44a32.687 32.687 0 0 0-10.27-7.223 24.445 24.445 0 0 1-3.944 1.633 54.803 54.803 0 0 1 3.005 5.15Zm-5.886 41.076a39.753 39.753 0 0 0 5.385-1.759 23.815 23.815 0 0 0-3.193-1.193c-.877 1.194-1.628 2.198-2.192 2.952ZM28.24 15.008h.25a56.18 56.18 0 0 1 3.131-5.338A23.004 23.004 0 0 1 27.99 8.1a36.653 36.653 0 0 0-3.569 1.82 5.068 5.068 0 0 1 2.13 1.257 6.604 6.604 0 0 1 1.69 3.831Zm29.869 37.245c1.296.411 2.553.937 3.757 1.57a33.739 33.739 0 0 0 9.017-5.841l-10.52.565c-.751 1.382-1.503 2.638-2.254 3.706Zm-26.112-3.58h-1.566c.752 1.256 1.44 2.45 2.13 3.454a45.207 45.207 0 0 1 12.022-1.633v-1.633H43.08c-4.07 0-7.702-.063-11.083-.188Zm13.463 2.7v5.967a43.394 43.394 0 0 0 8.516-.942 69.875 69.875 0 0 0 2.693-3.58 44.832 44.832 0 0 0-11.21-1.444Zm-16.093-2.826-10.27-.44a33.735 33.735 0 0 0 8.955 5.716 22.755 22.755 0 0 1 3.632-1.507 39.615 39.615 0 0 1-2.317-3.769Zm-.188 5.779a39.873 39.873 0 0 0 5.135 1.695 43.964 43.964 0 0 1-2.13-2.889 23.557 23.557 0 0 0-3.005 1.194Zm6.575 2.01c2.903.616 5.862.931 8.83.941v-5.903c-3.87.003-7.721.51-11.46 1.507 1.19 1.696 2.13 2.89 2.63 3.454Z" fill="#fff"/><path d="M45.022 1.882c13.025 0 24.484 5.527 30.871 13.755h1.816C71.197 6.655 58.986.5 45.022.5 31.06.5 19.036 6.53 12.461 15.51h1.816c6.45-8.164 17.846-13.628 30.745-13.628Zm0 58.034c-12.148 0-22.918-4.774-29.493-12.06l-1.94-.125c6.762 8.228 18.346 13.63 31.433 13.63 13.088 0 24.797-5.465 31.56-13.756l-1.941.126c-6.575 7.411-17.408 12.247-29.619 12.247v-.063Z" fill="#fff"/></svg>