<svg width="245" height="40" fill="none" xmlns="http://www.w3.org/2000/svg"><g clip-path="url('#clip0_1904_486')"><path d="M26.47 26.747h-4.013v-5.619H16.39V26.7h-4.014V12.53h4.014v5.092h6.068V12.53h4.014v14.216Zm9.127-3.89a9.333 9.333 0 0 1 1.863 5.62c0 5.139-4.157 9.317-9.27 9.317a9.221 9.221 0 0 1-5.59-1.873l-1.48 1.49-1.769 1.776-1.768-1.777-1.48-1.489a9.221 9.221 0 0 1-5.591 1.873c-5.113 0-9.27-4.178-9.27-9.317 0-2.066.67-4.035 1.864-5.62l-1.481-1.489L0 19.64l1.768-1.777 1.481-1.489a9.332 9.332 0 0 1-1.863-5.62c0-5.138 4.157-9.317 9.27-9.317a9.22 9.22 0 0 1 5.59 1.873l1.48-1.489L19.4.14l1.768 1.776 1.481 1.49a9.221 9.221 0 0 1 5.59-1.874c5.113 0 9.27 4.179 9.27 9.318a9.332 9.332 0 0 1-1.863 5.62l1.48 1.488 1.769 1.777-1.768 1.777-1.53 1.345Zm-.621 5.668c0-1.922-.813-3.65-2.055-4.9l-.764-.768 3.153-3.17-3.201-3.218.764-.768a6.828 6.828 0 0 0 2.103-4.947c0-3.747-3.01-6.772-6.737-6.772-1.912 0-3.632.768-4.826 2.065l-.86.816-3.154-3.17-3.154 3.17-.764-.768C14.24 4.798 12.52 3.982 10.56 3.982c-3.727 0-6.738 3.025-6.738 6.772 0 1.92.813 3.65 2.055 4.899l.812.816-3.153 3.17 3.153 3.17-.812.817c-1.29 1.248-2.055 2.977-2.055 4.899 0 3.746 3.01 6.82 6.785 6.82 1.912 0 3.68-.817 4.922-2.114l.764-.768 3.154 3.17 3.153-3.17.765.768a6.69 6.69 0 0 0 4.874 2.066c3.726 0 6.737-3.026 6.737-6.772Zm11.897.336h5.065v-7.012h6.498v7.012h5.113V10.417h-5.065v6.917h-6.498v-6.916h-5.113V28.86Zm23.317 0h14.86v-4.323h-9.843v-2.93H84v-4.034h-8.792v-2.786h9.7v-4.322H70.19V28.86Zm20.88 0h5.018V18.775l7.836 10.086h4.443V10.417h-5.017v9.75l-7.55-9.75h-4.73v18.444Zm23.939 0h6.976c6.594 0 10.464-3.939 10.464-9.27 0-5.38-3.775-9.174-10.321-9.174h-7.071v18.444h-.048Zm5.065-4.515v-9.462h2.054c3.058 0 5.065 1.777 5.065 4.707 0 3.026-2.007 4.707-5.065 4.707h-2.054v.048Zm18.348 4.515h14.859v-4.323h-9.842v-2.93h8.791v-4.034h-8.791v-2.786h9.699v-4.322h-14.716V28.86Zm20.88 0h5.065v-5.572h2.245l3.68 5.572h5.877l-4.348-6.436c2.293-.96 3.774-2.834 3.774-5.668 0-1.873-.573-3.266-1.624-4.37-1.243-1.25-3.154-1.97-5.973-1.97h-8.648v18.444h-.048Zm5.065-9.606v-4.419h3.344c1.72 0 2.772.72 2.772 2.161 0 1.393-1.004 2.258-2.724 2.258h-3.392Zm15.767 6.868c2.246 2.017 5.352 3.074 8.601 3.074 4.444 0 7.406-2.257 7.406-6.004 0-3.506-2.628-4.85-6.833-5.763-2.532-.577-3.153-.96-3.153-1.777 0-.72.621-1.25 1.816-1.25 1.624 0 3.44.625 5.112 1.826l2.532-3.602c-2.006-1.585-4.443-2.45-7.549-2.45-4.396 0-7.072 2.45-7.072 5.908 0 3.842 3.011 4.947 6.929 5.86 2.484.576 3.106 1.008 3.106 1.777 0 .864-.717 1.296-2.103 1.296-2.102 0-4.157-.768-5.925-2.209l-2.867 3.314Zm21.215-6.484c0 5.331 4.205 9.558 9.843 9.558s9.891-4.275 9.891-9.558c0-5.331-4.205-9.558-9.843-9.558s-9.891 4.275-9.891 9.558Zm14.526 0c0 2.69-1.864 4.995-4.683 4.995-2.771 0-4.682-2.305-4.682-4.995s1.863-4.995 4.634-4.995c2.819.048 4.731 2.353 4.731 4.995Zm11.228 9.222h5.017V18.775l7.836 10.086h4.444V10.417h-5.017v9.75l-7.55-9.75h-4.73v18.444Z" fill="#fff"/></g><defs><clipPath id="clip0_1904_486"><path fill="#fff" transform="translate(0 .14)" d="M0 0h244.4v39H0z"/></clipPath></defs></svg>