<svg width="135" height="60" fill="none" xmlns="http://www.w3.org/2000/svg"><path fill-rule="evenodd" clip-rule="evenodd" d="M68.616 33.143h-3.513l3.849-5.612-.336 5.612ZM66.303 19.87h10.91l.625 21.995H67.65l.114-3.22h-6.206l-2.041 3.22H49.076L66.303 19.87Zm35.68 0h9.845l-8.194 21.995h-9.683l2.883-8.11-5.024.058-3.113 8.052h-9.944l8.41-21.995h9.787l-2.71 7.544h5.038l2.705-7.544Zm12.783 0H135l-2.375 6.411h-5.294l-5.952 15.584h-9.956l5.974-15.584h-5.279l2.648-6.41ZM14.812 37.382c2.605 11.068 20.929 18.833 41.843 22.285C27.477 58.52 5.26 52.414.786 42.897-4.584 31.274 18.198 15.05 49.42.5 28.214 12.164 12.032 25.642 14.812 37.382ZM45.846 19.87H56.64L44.253 30.315l4.363 11.549H37.19l-2.144-8.341-3.213 8.341H21.7l8.642-21.995H40.2l-2.895 7.82 8.54-7.82Z" fill="#fff"/></svg>