<svg width="190" height="36" fill="none" xmlns="http://www.w3.org/2000/svg"><path fill-rule="evenodd" clip-rule="evenodd" d="M0 35.114h11.02V.879H0v34.235ZM28.504 22.423c-5.61-4.881-14.98-2.994-14.98-2.994 0 1.953-.263 8.201 4.884 12.756 5.608 4.883 14.978 2.93 14.978 2.93s.792-7.875-4.882-12.692ZM18.408 3.873c-5.147 4.557-4.883 10.74-4.883 12.758 0 0 9.37 1.886 14.979-2.995C34.179 8.756 33.386.879 33.386.879S31.634.515 29.193.5h-.303c-3.175.02-7.398.653-10.482 3.373ZM107.597 24.543l-4.208-7.913h-4.734l6.641 12.128-3.353 6.356h4.734l9.534-18.484h-4.603l-4.011 7.913ZM125.747 20.521c1.643 0 3.025.649 4.011 1.621l3.091-3.112c-1.71-1.686-4.012-2.659-7.036-2.659-1.512 0-2.96.26-4.406.973-3.156 1.556-5.063 4.734-5.063 8.495 0 3.892 2.104 7.264 5.458 8.756 1.25.519 2.695.779 4.143.779 2.761 0 4.733-.844 6.772-2.79l-2.565-3.112c-1.315 1.167-2.498 1.815-4.339 1.815-2.96 0-5.063-2.4-5.063-5.448 0-2.918 2.038-5.318 4.997-5.318ZM136.199 35.114h13.941v-3.891h-9.601v-3.568h7.234V23.83h-7.234V20.52h9.601v-3.89h-13.941v18.483ZM182.289 31.223h-3.616v-4.93h3.616c1.578 0 2.565 1.233 2.565 2.466 0 1.232-.921 2.464-2.565 2.464Zm6.906-2.351v-.128a6.35 6.35 0 0 0-1.775-4.33c-1.249-1.298-2.893-1.946-4.866-1.946h-3.878V16.63h-4.34v18.484h8.218c4.318 0 6.617-3.145 6.641-6.242ZM157.505 20.327c-.723 10.247-2.367 10.831-4.537 10.572l-.132 4.215c5.063.714 7.43-1.297 8.549-11.026l.394-3.566h4.077v14.592h4.273V16.63h-12.362l-.262 3.697ZM54.932 16.63l-6.181 7.589V16.63h-4.339v18.483h4.339v-7.717l5.918 7.717h5.721l-7.628-9.532 7.957-8.95h-5.787ZM68.865 27.331l2.04-5.253 2.12 5.253h-4.16Zm.065-10.7-7.627 18.483h4.537l1.511-3.892h7.242l1.57 3.892h4.734L72.874 16.63H68.93ZM90.963 26.294h-3.616v-5.578h3.616c1.644 0 2.565 1.557 2.565 2.79 0 1.296-.987 2.788-2.565 2.788Zm.326-9.664h-8.284v18.484h4.34l.065-4.93h3.485c2.564 0 4.076-.777 5.326-2.01 1.118-1.167 1.775-3.178 1.775-4.8 0-3.177-2.3-6.744-6.707-6.744ZM128.543 7.1h-3.019V5.645h2.616V3.924h-2.616v-1.39h2.952V.88h-4.764v7.875h4.831V7.1ZM108.952 2.534h.806c.669 0 1.072.198 1.072.927 0 .728-.537.926-1.072.926h-.806V2.534Zm-.001 3.573h.871c1.88 0 2.954-1.257 2.954-2.647s-.739-2.647-3.222-2.647c-.603 0-2.012.066-2.415.066v7.875h1.812V6.107ZM56.485 3.858v4.897h1.812V.88h-1.611l-3.489 4.896V.88H51.32v7.875h1.61l3.556-4.897ZM46.22 2.534h2.752V.879h-4.563v7.876h1.812V2.534ZM76.143 7.1h-3.086V5.645h2.616V3.924h-2.616v-1.39h2.952V.88h-4.763v7.875h4.897V7.1ZM88.823 3.791l2.214 3.044h.268l2.214-3.11v5.03h1.812V.88h-1.677l-2.349 3.31-2.482-3.31H87.01v7.876h1.812V3.791ZM116.668 4.982l2.684 3.773h2.349L118.48 4.52l2.952-3.64h-2.147l-2.617 3.44V.88h-1.878v7.875h1.878V4.982ZM63.397 2.534h2.817v6.22h1.812V.88h-6.441v7.876h1.812V2.534ZM130.558 2.534h2.349v6.22h1.878v-6.22h2.348V.879h-6.575v1.655ZM101.235 3.196l.938 2.184h-1.81l.872-2.184Zm1.61 3.904.671 1.655h1.945L102.107.88h-1.61l-3.354 7.875h1.877l.672-1.655h3.153ZM81.778 4.387h-.872V2.534h.804c.671 0 1.14.198 1.14.927 0 .727-.602.926-1.072.926ZM81.51.813c-.603 0-1.946.067-2.415.067v7.875h1.813V6.107h.87c1.88 0 3.02-1.257 3.02-2.646 0-1.39-.805-2.648-3.288-2.648Z" fill="#fff"/></svg>