<svg width="277" height="27" fill="none" xmlns="http://www.w3.org/2000/svg"><path fill-rule="evenodd" clip-rule="evenodd" d="M49.044 1.384C52.222.114 55.876.22 59 1.648c2.383 1.058 4.449 2.962 5.667 5.341.37.74.689 1.534.9 2.327H60.59c-.636-1.27-1.536-2.433-2.754-3.226a6.889 6.889 0 0 0-2.436-.952 8.708 8.708 0 0 0-5.297.74c-2.118 1.058-3.707 3.12-4.29 5.447a8.992 8.992 0 0 0 .9 6.505c1.219 2.062 3.337 3.596 5.72 3.966 1.007.211 2.12.158 3.125-.053 1.325-.265 2.543-.9 3.443-1.904.53-.529.9-1.163 1.271-1.798h5.085a11.865 11.865 0 0 1-3.39 5.341c-2.119 1.85-4.873 2.856-7.68 2.961-3.178.159-6.408-.899-8.792-3.014A12.72 12.72 0 0 1 42 18.464a13.453 13.453 0 0 1-.742-7.773 13.111 13.111 0 0 1 2.966-6.081c1.324-1.322 3.02-2.486 4.82-3.226ZM213.23.538a13.233 13.233 0 0 1 7.097 1.745 13.687 13.687 0 0 1 4.767 4.76c1.271 2.22 1.853 4.811 1.694 7.402-.159 2.221-.9 4.39-2.118 6.24a12.72 12.72 0 0 1-4.926 4.39c-2.33 1.216-5.031 1.639-7.573 1.321-2.225-.264-4.396-1.163-6.197-2.485-1.748-1.322-3.125-3.014-4.025-5.024-1.06-2.326-1.377-4.97-1.007-7.509.371-2.115 1.218-4.177 2.543-5.87 1.377-1.797 3.283-3.225 5.402-4.071a13.54 13.54 0 0 1 4.343-.9Zm0 4.548c-1.271.105-2.595.475-3.708 1.11-1.006.582-1.906 1.322-2.542 2.274-1.483 1.956-2.065 4.653-1.483 7.033a9.171 9.171 0 0 0 1.377 3.014c1.271 1.798 3.337 3.067 5.508 3.384a7.8 7.8 0 0 0 3.655-.211c2.118-.582 4.025-2.062 5.084-3.966a8.872 8.872 0 0 0 1.113-3.649c.053-1.216-.106-2.432-.583-3.596a8.423 8.423 0 0 0-4.396-4.653 8.16 8.16 0 0 0-4.025-.74Zm50.262-4.23a13.46 13.46 0 0 1 4.82-.212c2.171.264 4.343 1.057 6.09 2.432.901.688 1.695 1.48 2.384 2.38-1.218.952-2.49 1.85-3.708 2.802-.582-.687-1.218-1.375-1.959-1.903-.954-.74-2.119-1.164-3.284-1.375-1.165-.159-2.436-.159-3.602.106-.847.211-1.694.581-2.224 1.322-.371.581-.477 1.322-.212 1.956.212.529.583.952 1.059 1.216.795.476 1.695.688 2.596.9 1.324.264 2.648.475 3.972.845 1.112.265 2.224.582 3.283 1.005 1.06.423 2.119 1.058 2.861 1.904a5.738 5.738 0 0 1 1.324 2.803c.158 1.057.158 2.168-.106 3.225-.265 1.163-.795 2.274-1.589 3.12a7.754 7.754 0 0 1-2.225 1.692c-1.112.582-2.33.952-3.548 1.164-2.701.476-5.561.317-8.157-.582-2.383-.793-4.554-2.274-5.984-4.336 1.271-.9 2.542-1.851 3.813-2.75 1.112 1.48 2.648 2.644 4.396 3.226 1.43.476 2.966.529 4.449.317.9-.106 1.801-.317 2.595-.793a2.613 2.613 0 0 0 1.059-.952c.371-.529.477-1.27.318-1.904-.159-.581-.583-1.005-1.059-1.375-.742-.528-1.589-.793-2.437-1.004a38.8 38.8 0 0 0-2.648-.582c-1.165-.264-2.33-.529-3.495-.899s-2.278-.793-3.284-1.48a5.354 5.354 0 0 1-2.066-2.645c-.37-1.004-.423-2.115-.317-3.225.159-1.217.582-2.38 1.324-3.332 1.483-1.586 3.495-2.591 5.561-3.067ZM.053 1.118h6.726c2.172 5.976 4.29 11.899 6.462 17.874 2.171-5.975 4.29-11.898 6.461-17.874h6.727V25.92h-4.555V8.1c-2.066 5.922-4.131 11.898-6.197 17.82H10.7C8.633 19.945 6.567 14.022 4.555 8.047V25.92H0C.053 17.671.053 9.37.053 1.12Zm32.255 0h4.554V25.92h-4.555V1.12Zm37.762 0h4.555v10.154h11.546V1.119h4.555V25.92H86.17V15.767H74.625V25.92H70.07V1.12ZM94.222 25.92c3.336-8.249 6.673-16.551 9.957-24.8h4.66c3.337 8.249 6.674 16.551 9.957 24.8h-4.872c-.742-1.85-1.536-3.754-2.278-5.605h-10.327a178.254 178.254 0 0 1-2.278 5.605h-4.82Zm12.34-18.614a568.44 568.44 0 0 1-3.39 8.514h6.727a240.069 240.069 0 0 1-2.172-5.552c-.371-.952-.741-1.957-1.165-2.962Zm15.889 18.614V1.12h17.266v4.547h-12.711v5.606h12.711v4.547h-12.711v5.605h12.711v4.548c-5.773-.053-11.546-.053-17.266-.053Zm23.78 0V1.12h4.555v20.253h10.646v4.547h-15.201Zm32.785 0h4.554v-8.143c1.06-1.058 2.119-2.168 3.178-3.226 2.701 3.807 5.455 7.615 8.157 11.422h5.614c-3.496-4.918-7.044-9.835-10.54-14.753 3.231-3.332 6.461-6.716 9.692-10.048h-6.038c-3.336 3.438-6.726 6.928-10.063 10.365V1.172h-4.554V25.92Zm53.016-24.8h11.969c2.278 0 4.608 1.004 6.144 2.696 1.748 1.851 2.542 4.548 2.066 7.034-.424 2.485-2.066 4.759-4.29 5.975 1.747 3.067 3.548 6.081 5.296 9.095h-5.349c-1.536-2.697-3.125-5.446-4.661-8.143h-6.62v8.143h-4.555V1.12Zm4.555 12.11h7.414c.954 0 1.96-.371 2.649-1.059.794-.74 1.218-1.903 1.165-2.96-.053-1.006-.53-1.905-1.271-2.592-.689-.635-1.589-.952-2.543-.952h-7.414v7.562Z" fill="#fff"/></svg>