<svg width="1970" height="292" fill="none" xmlns="http://www.w3.org/2000/svg"><mask id="mask0" mask-type="alpha" maskUnits="userSpaceOnUse" x="0" y="0" width="292" height="292"><circle cx="146" cy="146" r="146" fill="#C4C4C4"/></mask><g mask="url('#mask0')"><path d="M217.412 15.543c72.944 41.165 99.378 132.479 59.037 203.967s-132.172 96.045-205.116 54.88C-1.61 233.225-28.045 141.911 12.296 70.424c40.341-71.489 132.172-96.046 205.116-54.88Z" fill="url('#paint0_linear')"/><path d="M217.412 15.543c72.944 41.165 99.378 132.479 59.037 203.967s-132.172 96.045-205.116 54.88C-1.61 233.225-28.045 141.911 12.296 70.424c40.341-71.489 132.172-96.046 205.116-54.88Z" fill="url('#paint1_linear')"/><path d="M78.01 202.596C22.958 148.635 17.69 69.083 66.23 24.929c48.539-44.153 132.516-36.203 187.569 17.758 55.052 53.96 60.32 133.494 11.761 177.667-48.558 44.172-132.516 36.203-187.55-17.758Z" fill="url('#paint2_radial')"/><path d="M135.907 146.339C79.921 114.286 53.166 59.911 76.14 24.922c22.974-34.99 87.002-37.39 142.988-5.336 55.986 32.053 82.741 86.428 59.748 121.436-22.993 35.009-86.983 37.389-142.969 5.317Z" fill="url('#paint3_radial')"/></g><path d="M484.735 126.677c7.659 2.923 14.512 6.877 20.062 11.917 5.55 5.29 10.017 11.638 13.458 18.794 3.163 7.156 4.745 15.092 4.745 23.835 0 8.742-1.582 16.427-4.745 23.555-3.441 7.156-7.908 13.504-13.458 18.544-5.55 5.29-12.403 9.272-20.062 12.168-7.908 2.923-16.371 4.51-25.584 4.51H367V52h139.906v36.531H405.515v33.886h53.636c9.241.027 17.676 1.364 25.584 4.26Zm-6.326 37.088c-5.022-3.982-11.599-6.099-19.785-6.099h-53.109v46.861h53.109c8.186 0 14.763-2.116 19.785-6.097 5.023-3.982 7.381-9.523 7.381-17.207 0-7.685-2.358-13.505-7.381-17.458ZM594.895 240H558V52h36.895v79.689L660.518 52h45.869l-74.847 90.297L722 240h-48.174l-78.931-85.257V240ZM778.694 235.276c-11.897-5.029-22.21-11.893-30.938-20.617-8.728-8.725-15.593-18.756-20.625-30.648-5.031-11.893-7.393-24.563-7.393-38.039 0-13.476 2.39-26.146 7.393-38.038 5.032-11.893 11.897-22.202 20.625-30.926 8.728-8.725 19.041-15.588 30.938-20.617 11.897-5.03 25.1-7.391 39.387-7.391 10.563 0 20.875 1.584 30.66 4.751 9.784 3.446 18.762 7.92 26.962 13.754 7.922 6.085 14.815 12.949 20.625 21.145 5.809 8.197 10.035 17.45 12.675 27.48h-41.5c-1.862-4.751-4.503-8.975-7.922-12.67a52.345 52.345 0 0 0-11.897-9.503c-4.503-2.39-8.977-4.501-14.009-5.807-5.031-1.334-10.312-2.112-15.594-2.112-8.978 0-17.178 1.584-24.322 4.502-7.393 3.167-13.731 7.39-19.04 12.948-5.282 5.557-9.256 11.892-12.147 19.033-2.919 7.141-4.225 15.06-4.225 23.507 0 8.447 1.334 16.393 4.225 23.506 2.918 7.141 6.865 13.477 12.147 19.034 5.281 5.557 11.619 9.781 19.04 12.671 7.144 3.167 15.344 4.751 24.322 4.751 5.282 0 10.563-.806 15.594-2.112 5.032-1.334 9.506-3.445 14.009-6.085 4.503-2.389 8.45-5.557 11.897-9.253a38.975 38.975 0 0 0 7.922-12.67h41.5c-2.64 10.03-6.866 19.033-12.675 27.202-5.81 8.197-12.675 15.338-20.625 21.145-8.2 6.085-17.178 10.559-26.962 13.754-9.785 3.446-20.097 5.029-30.66 5.029-14.259-.056-27.49-2.695-39.387-7.724ZM977.151 82.964V64.34h36.319V52h-49.307v78.235h29.827c15.19 0 26.53-9.145 26.53-23.58 0-14.656-11.34-23.691-26.53-23.691h-16.839Zm30.599 23.691c0 7.493-5.06 11.57-13.87 11.57h-16.729v-23.36h16.729c8.81 0 13.87 4.187 13.87 11.79ZM1023.06 130.235h13.32l8.81-20.495h35l8.91 20.495h13.43L1068.41 52h-11.23l-34.12 78.235Zm39.63-60.825 12.54 28.87h-25.09l12.55-28.87ZM1112.6 130.235h12.87V96.627h38.64v33.608h12.87V52h-12.87v32.396h-38.64V52h-12.87v78.235ZM1246.96 130.235h17.39l-42.49-40.77L1256.64 52h-16.29l-31.36 33.718V52h-12.77v78.235h12.77V93.652l37.97 36.583ZM1023.38 257h11.77v-28.65h-9.9v-65.894h-55.804v41.101c0 19.835-4.732 24.793-10.015 24.793H958V257h11.777v-16.308h53.603V257Zm-40.946-82.202h29.936v53.552h-34.559c2.972-4.848 4.623-11.349 4.623-23.25v-30.302ZM1054.37 215.899c0 11.239-2.86 13.994-8.14 13.994-1.98 0-3.63-.11-5.06-.331v12.011c1.65.331 3.96.441 6.71.441 11.67 0 19.48-7.493 19.48-24.352v-42.864h29.94v65.894h12.99v-78.236h-55.92v53.443ZM1167.66 240.692h12.88v-78.236h-24.98c-16.4 0-26.53 10.138-26.53 24.242 0 10.689 6.5 19.173 16.62 22.369l-27.29 31.625h15.73l25.76-29.642h7.81v29.642Zm-25.86-53.994c0-7.493 5.17-12.341 13.98-12.341h11.88v24.903h-11.88c-8.81 0-13.98-4.959-13.98-12.562ZM1236.79 240.692l44.02-56.308v56.308h12.88v-78.236h-11.23l-43.91 56.198v-56.198h-12.99v78.236h11.23ZM1312.84 240.692h12.87v-33.608h38.64v33.608h12.87v-78.236h-12.87v32.396h-38.64v-32.396h-12.87v78.236ZM1396.46 240.692h30.38c14.85 0 25.2-10.028 25.2-22.92 0-9.697-5.39-15.647-12.55-18.622 4.3-3.196 7.27-8.044 7.27-15.096 0-11.791-9.36-21.598-23.34-21.598h-26.96v78.236Zm12.88-11.791v-22.479h17.17c8.36 0 12.98 4.739 12.98 11.24 0 6.611-4.62 11.239-12.98 11.239h-17.17Zm0-33.498v-21.156h13.42c7.05 0 11.34 4.848 11.34 10.578 0 6.061-4.29 10.578-11.34 10.578h-13.42ZM1465.89 240.692h47V228.35h-34.12v-21.156h27.52v-12.342h-27.52v-20.054h34.12v-12.342h-47v78.236ZM1561.42 242.014c18.82 0 33.79-12.231 37.65-27.548h-13.87c-3.3 8.926-12.77 15.096-23.78 15.096-16.29 0-27.73-12.231-27.73-27.988s11.44-27.988 27.73-27.988c11.01 0 20.48 6.17 23.78 15.096h13.87c-3.86-15.317-18.83-27.548-37.65-27.548-23.33 0-40.72 17.52-40.72 40.44 0 22.92 17.39 40.44 40.72 40.44ZM1626.18 240.692h12.88v-65.894h22.78v-12.342h-58.33v12.342h22.67v65.894ZM1705.23 229.562c-15.52 0-27.41-12.561-27.41-27.988s11.89-27.988 27.41-27.988c15.41 0 27.29 12.561 27.29 27.988s-11.88 27.988-27.29 27.988Zm0 12.452c22.34 0 40.39-17.851 40.39-40.44s-18.05-40.44-40.39-40.44c-22.45 0-40.39 17.851-40.39 40.44s17.94 40.44 40.39 40.44ZM1811.7 188.021c0-14.435-11.01-25.565-27.08-25.565h-24.87v78.236h12.88v-27.107h11.99c16.07 0 27.08-11.129 27.08-25.564Zm-12.66 0c0 7.603-5.28 13.443-14.53 13.443h-11.88v-26.887h11.88c9.25 0 14.53 5.84 14.53 13.444ZM1859.9 229.562c-15.52 0-27.41-12.561-27.41-27.988s11.89-27.988 27.41-27.988c15.4 0 27.29 12.561 27.29 27.988s-11.89 27.988-27.29 27.988Zm0 12.452c22.34 0 40.39-17.851 40.39-40.44s-18.05-40.44-40.39-40.44c-22.46 0-40.4 17.851-40.4 40.44s17.94 40.44 40.4 40.44ZM1914.42 240.692h30.38c14.85 0 25.2-10.028 25.2-22.92 0-9.697-5.39-15.647-12.55-18.622 4.3-3.196 7.27-8.044 7.27-15.096 0-11.791-9.36-21.598-23.34-21.598h-26.96v78.236Zm12.88-11.791v-22.479h17.17c8.36 0 12.98 4.739 12.98 11.24 0 6.611-4.62 11.239-12.98 11.239h-17.17Zm0-33.498v-21.156h13.42c7.05 0 11.34 4.848 11.34 10.578 0 6.061-4.29 10.578-11.34 10.578h-13.42Z" fill="#006DF0"/><defs><radialGradient id="paint2_radial" cx="0" cy="0" r="1" gradientUnits="userSpaceOnUse" gradientTransform="rotate(-156.356 182.08 46.81) scale(350.157 721.971)"><stop offset=".097" stop-color="#4581E9"/><stop offset=".46" stop-color="#80ACF0"/><stop offset=".794" stop-color="#F0F6FD"/></radialGradient><radialGradient id="paint3_radial" cx="0" cy="0" r="1" gradientUnits="userSpaceOnUse" gradientTransform="matrix(-307.27896 21.22298 -25.45668 -368.57693 444.367 26.738)"><stop stop-color="#4581E9"/><stop offset=".537" stop-color="#87B1F0"/><stop offset=".806" stop-color="#CCE0FD"/><stop offset="1" stop-color="#F0F6FD"/></radialGradient><linearGradient id="paint0_linear" x1="139.647" y1="294.333" x2="144.601" y2="16.755" gradientUnits="userSpaceOnUse"><stop stop-color="#4581E9"/><stop offset=".479" stop-color="#80ACF0"/><stop offset="1" stop-color="#fff"/></linearGradient><linearGradient id="paint1_linear" x1="378.369" y1="291.576" x2="124.567" y2="64.087" gradientUnits="userSpaceOnUse"><stop stop-color="#4581E9"/><stop offset="1" stop-color="#4581E9" stop-opacity="0"/></linearGradient></defs></svg>