<svg width="160" height="48" fill="none" xmlns="http://www.w3.org/2000/svg"><path d="M50.325 38.808c1.43 0 2.587-1.135 2.587-2.54 0-1.406-1.16-2.54-2.587-2.54-1.421 0-2.584 1.134-2.584 2.54 0 1.405 1.163 2.54 2.584 2.54Z" fill="#F7F7F7"/><path fill-rule="evenodd" clip-rule="evenodd" d="M64.382 26.545c13.673-6.983 22.341-20.15 19.965-21.46-3.904-2.13-21.264 2.695-26.827 21.14-.657.178-3.813.98-3.813.98l-1.372 3.645 4.878-1.467s-.534 9.155 7.656 9.423c6.436-.236 9.797-9.537 7.743-15.854-.405.197-5.542 2.63-5.542 2.63s1.193 6.937-1.66 7.786c-.932.119-2.018-2.66-1.028-6.823Zm1.326-3.664c3.219-.636 15.811-13.814 13.195-13.576-5.22 1.258-14.232 13-13.195 13.576Z" fill="#F7F7F7"/><path d="M75.894 24.559v-2.632s7.217-4.738 8.99-5.324c1.69-.384 3.097.474 2.676 2.335-.074.488-.8 2.295-1.671 4.461-1.663 4.137-3.852 9.583-3.02 9.642 3.706-.476 9.175-11.503 10.127-15.735h6.362s-5.78 16.62-5.325 16.85c.443.212 2.262-1.47 2.262-1.47s.568 1.78.72 2.16c-.995 1.177-3.625 2.94-5.647 3.683-2.031.732-3.943.007-4.31-1.765-.381-1.773.492-3.996.492-3.996s-3.654 3.53-7.085 5.367c-.955.513-2.008.675-2.593.675-2.325 0-2.718-2.673-2.64-3.405.046-.735 1.12-3.472 2.2-6.226 1.143-2.914 2.294-5.848 2.245-6.456-.265-.414-3.783 1.836-3.783 1.836Z" fill="#F7F7F7"/><path fill-rule="evenodd" clip-rule="evenodd" d="M120.598 17.299h-6.024s-.615 1.455-.748 1.737c-.694-1.183-3.118-3.5-8.113-.437-5.222 3.316-7.444 8.976-6.748 14.982.764 4.973 5.076 7.362 9.923 1.338-.726.911-4.148 12.494-4.148 12.494h6.091l9.767-30.114Zm-11.703 4.868c1.426-1.588 3.219-1.623 3.173.904-.191 2.902-2.155 7.964-4.167 9.317l-.034.019c-.854.468-2.165 1.187-2.356-1.744-.1-3.505 2.844-7.883 3.384-8.496Z" fill="#F7F7F7"/><path d="M34.676 20.109c-3.25 6.82-8.912 18.699-13.667 18.699-.847 0-2.114-.314-3.05-1.268-2.273-2.33-1.542-6.314-.808-10.319.256-1.394.512-2.79.642-4.12-.126.123-.459.755-.957 1.702-2.147 4.083-7.365 14.003-12.244 14.003-.105 0-.214 0-.323-.01-5.442-.498-4.731-7.89-3.038-12.37h8.782c-2.7 7.304 1.02 4.321 3.554-.334 4.988-9.957 5.115-10.304 10.423-24.835L24.266.5h9.641c-2.872 8.64-5.3 16.46-6.473 25.42 0 .34.165.669.5.51 1.514-.251 7.854-13.571 11.415-21.053C40.572 2.807 41.468.924 41.727.5h9.648s-10.252 27.917-8.572 30.577c.62 1.092 1.411-.115 2.189-1.298.29-.442.577-.88.853-1.195l1.523 1.493c-.613.671-1.246 1.464-1.909 2.292-2.623 3.28-5.702 7.13-9.744 6.334-.683-.163-1.358-.502-1.86-.998-3.614-3.087-.253-11.883 1.859-17.41.955-2.502 1.656-4.334 1.338-4.665-.248.028-.505.574-.888 1.384-.09.19-.186.394-.291.61-.347.703-.75 1.546-1.197 2.485Z" fill="#F7F7F7"/><path fill-rule="evenodd" clip-rule="evenodd" d="M134.788 30.7s-6.135 5.783-8.288 2.704c11.587-5.994 14.365-13.583 10.801-15.71-5.268-2.896-19.705 2.285-18.07 16.477-.72.424-2.239 1.232-2.239 1.232l1.06 2.817s2.015-1.186 2.558-1.552l.113.09c1.627 1.291 2.522 2 5.088 2.05 5.582.114 10.393-5.969 10.393-5.969l-1.416-2.14Zm-1.087-10.231c1.315.897-1.342 5.463-7.587 10.324-.251-.426.256-3.183 1.923-6.079 1.657-2.89 4.357-5.147 5.664-4.245Z" fill="#F7F7F7"/><path d="M144.275 38.806c-3.333-.09-4.882-2.747-5.266-3.625-3.722-9.08 6.566-17.215 7.025-17.579a.21.21 0 0 0 .016-.012l6.466.002s-9.529 7.4-8.166 14.256c1.083 4.177 5.036 2.147 7.218-2.58.423-.93 3.063-7.227 1.4-7.227-1.66 0-3.387 3.227-3.387 3.227l-1.816-1.787s3.666-5.15 7.859-6.528c.508-.153 3.527-.76 3.562 3.486.134 1.984-1.787 12.49-9.63 16.691-2.339 1.25-3.873 1.72-5.281 1.676Z" fill="#F7F7F7"/></svg>