<svg width="195" height="37" fill="none" xmlns="http://www.w3.org/2000/svg"><path d="M91.337 30.846h3.859l5.379-19.958v19.958h4.327V4.47h-5.964l-5.38 19.374-5.38-19.374h-6.08v26.377h3.742V10.888l5.496 19.958Zm31.692-13.072c0-4.668-2.339-6.42-7.134-6.42-3.04 0-5.379.935-6.783 1.752v3.734c1.17-.933 3.86-1.867 6.199-1.867 2.222 0 3.157.817 3.157 2.801v1.05h-.701c-6.9 0-10.058 2.335-10.058 6.186 0 3.852 2.339 6.07 5.847 6.07 2.69 0 3.86-.817 4.678-1.751h.234c0 .467.234 1.167.351 1.517h4.444c-.117-1.517-.234-3.151-.234-4.668v-8.404Zm-4.561 8.52c-.584.817-1.637 1.518-3.274 1.518-1.871 0-2.807-1.168-2.807-2.802 0-2.217 1.52-3.034 5.497-3.034h.701v4.318h-.117Zm12.397-14.589h-4.21v24.627h4.561v-7.703c1.169 1.75 2.806 2.567 4.794 2.567 4.444 0 7.485-3.501 7.485-9.92 0-6.42-2.924-9.921-7.251-9.921-2.105 0-3.859.934-5.145 2.801l-.234-2.451Zm3.859 15.99c-2.339 0-3.625-1.984-3.625-6.303 0-4.435 1.286-6.419 3.859-6.419 2.456 0 3.742 1.984 3.742 6.303 0 4.435-1.286 6.419-3.976 6.419Zm22.922 3.151h5.145l-7.25-10.27 6.432-8.871h-4.561l-6.432 8.87v-8.87h-4.561v19.141h4.561V21.51l6.666 9.337Zm20.348-1.284v-3.735c-1.403.934-3.742 1.751-5.964 1.751-3.274 0-4.561-1.517-4.795-4.785h10.876v-2.451c0-6.653-2.923-9.104-7.484-9.104-5.497 0-8.187 4.202-8.187 10.038 0 6.652 3.275 9.92 9.005 9.92 3.158 0 5.263-.7 6.549-1.634Zm-7.367-14.589c2.222 0 2.923 1.867 2.923 4.202v.35h-6.315c.117-3.035 1.287-4.552 3.392-4.552Zm23.74.35v-3.618h-15.203v3.618h5.379v15.523h4.561V15.323h5.263Z" fill="#fff"/><path d="M55.081 35.514c9.707 0 17.543-7.82 17.543-17.507C72.624 8.32 64.788.5 55.08.5 45.375.5 37.54 8.32 37.54 18.007c-.117 9.687 7.836 17.507 17.542 17.507Z" fill="#fff" fill-opacity=".3"/><path fill-rule="evenodd" clip-rule="evenodd" d="M35.084 18.007c0 9.67-7.854 17.507-17.542 17.507C7.854 35.514 0 27.676 0 18.007S7.854.5 17.542.5c9.688 0 17.542 7.838 17.542 17.507ZM18.36 10.304H20.232v18.207h3.508V7.503h-5.38c-5.38 0-8.186 2.801-8.186 6.886 0 3.268 1.52 5.136 4.327 7.12l-4.795 7.12H13.8l5.028-7.82-1.754-1.285c-2.222-1.517-3.275-2.8-3.275-5.368 0-2.335 1.52-3.852 4.561-3.852Z" fill="#fff"/><path d="M46.428 10.07 30.991 30.262l4.093 4.669 11.461-15.173-1.17 8.286 6.433 2.218 7.835-12.488c-.35 2.334-.935 7.703 4.21 9.337 8.07 2.45 15.087-12.022 18.361-19.375l-4.678-2.45c-3.625 7.586-9.239 15.989-11.46 15.405-2.223-.583-.234-7.703 1.052-12.255V8.32l-7.134-2.451-8.537 13.889 1.17-7.587-6.199-2.1Z" fill="#fff"/></svg>