<svg width="51" height="43" fill="none" xmlns="http://www.w3.org/2000/svg"><path d="M21.194 7.211c0-3.353 2.705-6.072 6.042-6.072h15.103c3.337 0 6.041 2.719 6.041 6.072v24.291c0 3.354-2.705 6.073-6.041 6.073H27.236c-3.337 0-6.042-2.719-6.042-6.073V7.213Z" fill="#006DF0"/><path fill-rule="evenodd" clip-rule="evenodd" d="M49.035 27.204c.626 0 1.133.51 1.133 1.139v3.902c0 1.19-.67 2.166-1.542 2.905-.877.743-2.076 1.357-3.457 1.85-2.77.986-6.516 1.568-10.583 1.568-1.588 0-5.046-.18-6.5-.284a1.137 1.137 0 0 1-1.049-1.217c.045-.627.587-1.1 1.21-1.054 1.437.103 4.832.278 6.34.278 3.88 0 7.358-.56 9.825-1.438 1.24-.442 2.162-.942 2.753-1.444.595-.504.738-.901.738-1.164v-3.902c0-.63.507-1.139 1.132-1.139Z" fill="#fff"/><path fill-rule="evenodd" clip-rule="evenodd" d="M20.138 5.186c.625 0 1.132.51 1.132 1.138v6.225c0 .629-.507 1.138-1.132 1.138-.626 0-1.133-.51-1.133-1.138V6.324c0-.629.507-1.138 1.133-1.138Z" fill="#006DF0"/><path fill-rule="evenodd" clip-rule="evenodd" d="M22.004 5.175c-.595.505-.734.897-.734 1.148 0 .25.139.643.734 1.147.59.5 1.51 1.002 2.746 1.446 2.464.884 5.941 1.452 9.837 1.452 3.895 0 7.372-.568 9.836-1.452 1.236-.444 2.157-.945 2.746-1.446.595-.504.734-.897.734-1.147s-.139-.643-.734-1.148c-.59-.5-1.51-1.002-2.746-1.446-2.464-.883-5.941-1.452-9.837-1.452-3.895 0-7.372.569-9.836 1.452-1.236.444-2.157.946-2.746 1.446Zm1.985-3.59C26.755.592 30.502 0 34.587 0c4.084 0 7.831.592 10.597 1.585 1.378.494 2.574 1.11 3.446 1.85.868.735 1.538 1.707 1.538 2.888 0 1.18-.67 2.152-1.538 2.888-.872.74-2.068 1.355-3.446 1.85-2.766.992-6.513 1.584-10.597 1.584-4.085 0-7.832-.592-10.598-1.584-1.378-.495-2.574-1.11-3.446-1.85-.868-.736-1.538-1.707-1.538-2.888 0-1.181.67-2.153 1.538-2.888.872-.74 2.068-1.356 3.446-1.85Z" fill="#fff"/><path fill-rule="evenodd" clip-rule="evenodd" d="M49.036 5.186c.625 0 1.132.51 1.132 1.138v5.184c0 1.19-.67 2.166-1.542 2.905-.876.743-2.076 1.357-3.456 1.85-2.77.986-6.517 1.568-10.583 1.568-1.698 0-3.3-.107-4.805-.322a1.138 1.138 0 0 1-.96-1.289 1.134 1.134 0 0 1 1.28-.966c1.386.199 2.88.3 4.485.3 3.88 0 7.358-.56 9.826-1.438 1.238-.442 2.16-.942 2.752-1.443.595-.505.738-.902.738-1.165V6.324c0-.629.507-1.138 1.133-1.138Z" fill="#fff"/><path fill-rule="evenodd" clip-rule="evenodd" d="M49.035 10.086c.625 0 1.132.51 1.132 1.14v5.467c0 1.19-.67 2.165-1.542 2.905-.876.743-2.076 1.357-3.456 1.849-2.77.987-6.517 1.569-10.583 1.569h-1.961c-.626 0-1.133-.51-1.133-1.139s.507-1.139 1.133-1.139h1.96c3.881 0 7.36-.558 9.827-1.437 1.239-.442 2.161-.942 2.752-1.443.595-.505.738-.902.738-1.165v-5.468c0-.629.507-1.139 1.133-1.139Z" fill="#fff"/><path fill-rule="evenodd" clip-rule="evenodd" d="M49.034 15.191c.626 0 1.133.51 1.133 1.14v5.545c0 1.19-.67 2.166-1.543 2.905-.876.743-2.076 1.358-3.456 1.85-2.77.986-6.516 1.568-10.583 1.568H33.45c-.626 0-1.133-.51-1.133-1.139 0-.628.508-1.138 1.133-1.138h1.135c3.881 0 7.359-.559 9.826-1.438 1.24-.442 2.162-.942 2.753-1.443.595-.505.737-.902.737-1.165V16.33c0-.629.508-1.139 1.133-1.139Z" fill="#fff"/><path fill-rule="evenodd" clip-rule="evenodd" d="M49.036 20.282c.626 0 1.133.51 1.133 1.139v5.636c0 1.19-.67 2.166-1.542 2.905-.877.743-2.076 1.358-3.457 1.85-2.77.986-6.516 1.568-10.583 1.568h-1.754c-.626 0-1.133-.51-1.133-1.139 0-.628.507-1.138 1.133-1.138h1.754c3.881 0 7.36-.559 9.826-1.438 1.24-.441 2.162-.942 2.753-1.443.595-.505.738-.902.738-1.165v-5.636c0-.629.507-1.139 1.132-1.139Z" fill="#fff"/><path d="M16.01 41.574c7.98 0 14.448-6.498 14.448-14.515S23.99 12.543 16.01 12.543c-7.98 0-14.448 6.5-14.448 14.516S8.03 41.574 16.009 41.574Z" fill="#006DF0"/><path fill-rule="evenodd" clip-rule="evenodd" d="M16.01 13.682c-7.356 0-13.317 5.99-13.317 13.377 0 7.387 5.961 13.377 13.316 13.377s13.316-5.99 13.316-13.377c0-7.387-5.96-13.377-13.316-13.377ZM.427 27.06c0-8.646 6.976-15.654 15.581-15.654s15.582 7.008 15.582 15.654-6.977 15.654-15.582 15.654S.428 35.705.428 27.059Z" fill="#006DF0"/><path d="M14.909 31.266h5.13v1.727h-5.13v3.064h-2.266v-3.064h-2.02v-1.727h2.02v-1.774h-2.02v-2.027h2.02v-8.108h4.776c.992 0 1.902.077 2.732.23.843.139 1.562.4 2.154.784a3.806 3.806 0 0 1 1.4 1.566c.34.645.51 1.474.51 2.488 0 .982-.17 1.796-.51 2.441a4.007 4.007 0 0 1-1.4 1.567c-.592.384-1.31.66-2.154.829-.83.153-1.74.23-2.732.23h-2.51v1.774Zm2.62-3.8c.608 0 1.178-.04 1.71-.116.534-.077.993-.223 1.378-.438.4-.23.71-.545.933-.944.237-.4.355-.914.355-1.543 0-.63-.118-1.145-.355-1.544a2.287 2.287 0 0 0-.933-.921c-.385-.23-.844-.384-1.377-.46a12.005 12.005 0 0 0-1.71-.116h-2.621v6.081h2.62Z" fill="url('#paint0_linear_1904_593')"/><path d="M14.909 31.266h5.13v1.727h-5.13v3.064h-2.266v-3.064h-2.02v-1.727h2.02v-1.774h-2.02v-2.027h2.02v-8.108h4.776c.992 0 1.902.077 2.732.23.843.139 1.562.4 2.154.784a3.806 3.806 0 0 1 1.4 1.566c.34.645.51 1.474.51 2.488 0 .982-.17 1.796-.51 2.441a4.007 4.007 0 0 1-1.4 1.567c-.592.384-1.31.66-2.154.829-.83.153-1.74.23-2.732.23h-2.51v1.774Zm2.62-3.8c.608 0 1.178-.04 1.71-.116.534-.077.993-.223 1.378-.438.4-.23.71-.545.933-.944.237-.4.355-.914.355-1.543 0-.63-.118-1.145-.355-1.544a2.287 2.287 0 0 0-.933-.921c-.385-.23-.844-.384-1.377-.46a12.005 12.005 0 0 0-1.71-.116h-2.621v6.081h2.62Z" fill="url('#paint1_linear_1904_593')"/><path d="M14.909 31.266h5.13v1.727h-5.13v3.064h-2.266v-3.064h-2.02v-1.727h2.02v-1.774h-2.02v-2.027h2.02v-8.108h4.776c.992 0 1.902.077 2.732.23.843.139 1.562.4 2.154.784a3.806 3.806 0 0 1 1.4 1.566c.34.645.51 1.474.51 2.488 0 .982-.17 1.796-.51 2.441a4.007 4.007 0 0 1-1.4 1.567c-.592.384-1.31.66-2.154.829-.83.153-1.74.23-2.732.23h-2.51v1.774Zm2.62-3.8c.608 0 1.178-.04 1.71-.116.534-.077.993-.223 1.378-.438.4-.23.71-.545.933-.944.237-.4.355-.914.355-1.543 0-.63-.118-1.145-.355-1.544a2.287 2.287 0 0 0-.933-.921c-.385-.23-.844-.384-1.377-.46a12.005 12.005 0 0 0-1.71-.116h-2.621v6.081h2.62Z" fill="url('#paint2_linear_1904_593')"/><path d="M14.909 31.266h5.13v1.727h-5.13v3.064h-2.266v-3.064h-2.02v-1.727h2.02v-1.774h-2.02v-2.027h2.02v-8.108h4.776c.992 0 1.902.077 2.732.23.843.139 1.562.4 2.154.784a3.806 3.806 0 0 1 1.4 1.566c.34.645.51 1.474.51 2.488 0 .982-.17 1.796-.51 2.441a4.007 4.007 0 0 1-1.4 1.567c-.592.384-1.31.66-2.154.829-.83.153-1.74.23-2.732.23h-2.51v1.774Zm2.62-3.8c.608 0 1.178-.04 1.71-.116.534-.077.993-.223 1.378-.438.4-.23.71-.545.933-.944.237-.4.355-.914.355-1.543 0-.63-.118-1.145-.355-1.544a2.287 2.287 0 0 0-.933-.921c-.385-.23-.844-.384-1.377-.46a12.005 12.005 0 0 0-1.71-.116h-2.621v6.081h2.62Z" fill="url('#paint3_linear_1904_593')"/><defs><linearGradient id="paint0_linear_1904_593" x1="17.119" y1="14.942" x2="17.119" y2="64.69" gradientUnits="userSpaceOnUse"><stop stop-color="#fff"/><stop offset="1" stop-color="#fff" stop-opacity="0"/></linearGradient><linearGradient id="paint1_linear_1904_593" x1="17.119" y1="14.942" x2="17.119" y2="64.69" gradientUnits="userSpaceOnUse"><stop stop-color="#fff"/><stop offset="1" stop-color="#fff" stop-opacity="0"/></linearGradient><linearGradient id="paint2_linear_1904_593" x1="17.119" y1="14.942" x2="17.119" y2="64.69" gradientUnits="userSpaceOnUse"><stop stop-color="#fff"/><stop offset="1" stop-color="#fff" stop-opacity="0"/></linearGradient><linearGradient id="paint3_linear_1904_593" x1="17.119" y1="14.942" x2="17.119" y2="64.69" gradientUnits="userSpaceOnUse"><stop stop-color="#fff"/><stop offset="1" stop-color="#fff" stop-opacity="0"/></linearGradient></defs></svg>