<svg width="200" height="54" fill="none" xmlns="http://www.w3.org/2000/svg"><path d="M43.044.594c2.863-.318 5.864.167 8.399 1.541 2.57 1.357 4.604 3.602 5.622 6.266.724 1.793 1.034 3.737.983 5.647.034 2.764-.725 5.562-2.346 7.857-1.62 2.296-4.104 3.971-6.846 4.742-3.535 1.022-7.484.687-10.726-1.039a11.683 11.683 0 0 1-5.07-5.11c-1.328-2.547-1.656-5.495-1.397-8.31.276-2.966 1.483-5.931 3.69-8.042C37.405 2.152 40.182.929 43.044.594Zm1.018.938c-.897.1-1.776.385-2.466.972-1.035.854-1.518 2.144-1.845 3.401-.414 1.86-.5 3.753-.535 5.646.017 2.463-.069 4.926.104 7.389.12 1.525.327 3.05.93 4.473.501 1.274 1.587 2.346 2.967 2.664 1.414.302 2.966.268 4.277-.385 1.362-.704 2.035-2.161 2.38-3.552.603-2.53.551-5.143.534-7.724-.017-2.295.086-4.59-.207-6.869-.207-1.608-.552-3.317-1.638-4.607-1.087-1.274-2.897-1.592-4.501-1.408ZM153.755.611c2.966-.369 6.053.2 8.64 1.642 2.191 1.223 3.984 3.1 5.053 5.327 1.225 2.514 1.551 5.362 1.276 8.093-.276 2.781-1.379 5.529-3.363 7.573-3.138 3.3-8.122 4.607-12.606 3.736-2.603-.486-5.087-1.726-6.915-3.619-2.172-2.211-3.311-5.244-3.483-8.26-.224-3.434.517-7.087 2.759-9.818 2.07-2.647 5.294-4.289 8.639-4.674Zm.674.971a4.252 4.252 0 0 0-2.553 1.34c-.897 1.04-1.293 2.38-1.534 3.687-.328 1.96-.397 3.954-.363 5.93.035 2.966-.138 5.965.431 8.897.294 1.358.742 2.782 1.863 3.72 1.259 1.106 3.104 1.223 4.707.955 1.397-.218 2.587-1.206 3.138-2.463.967-2.178 1.002-4.59 1.087-6.92-.069-3.468.208-6.953-.397-10.387-.275-1.374-.723-2.815-1.828-3.787-1.241-1.039-3-1.206-4.551-.972ZM.105.912C2.865.778 5.641.88 8.417.862c4.794 5.127 9.554 10.27 14.365 15.38.034-4.775 0-9.533.017-14.308-1-.017-2.017.067-3.018-.033a1.042 1.042 0 0 1 0-1.006c.828-.1 1.673-.016 2.5-.05 1.587.034 3.191-.067 4.778.05.034.319.034.654 0 .972-1.035.117-2.104.034-3.139.067v24.914c-.431-.067-1.017.168-1.328-.2-6.07-6.518-12.14-13.036-18.227-19.537-.018 6.216-.018 12.432 0 18.648 1.051.034 2.103-.067 3.138.084 0 .352.138 1.039-.431 1.005-2.207.017-4.415.034-6.622 0-.517-.05-.345-.67-.328-1.005 1.035-.134 2.07-.034 3.104-.05-.017-7.942-.017-15.884 0-23.842-1.034-.034-2.069.05-3.104-.067A3.656 3.656 0 0 1 .105.912ZM60.67.895c2.828-.1 5.673-.016 8.519-.033 1.88.017 3.776-.05 5.656.033.086.336.172.687-.052.989-1 .134-2.018.033-3.018.05 2.26 5.144 4.501 10.27 6.777 15.398.673-1.642 1.328-3.301 2-4.96.397.067.794.151 1.19.252-1.43 3.585-2.88 7.187-4.31 10.773-.483 1.156-.897 2.345-1.432 3.485-.448.217-1.259.268-1.448-.302-3.501-8.042-7.036-16.067-10.537-24.093-.103-.184-.138-.436-.328-.536-1.051-.084-2.12.15-3.138-.15.017-.302.069-.604.12-.906Zm31.04.017c.362-.084.724-.05 1.087-.05h11.054c.31 0 .62.033.931.067.051.335.051.67-.052 1.005-.966.067-1.949.034-2.915.034-.017 7.941 0 15.883 0 23.825.983.016 1.966-.017 2.949.033.069.319.087.637.052.955-.707.184-1.466.084-2.19.117-3.656-.016-7.329.05-10.985-.033-.069-.318-.172-.67.017-.972.966-.168 1.95-.033 2.932-.084a5437.04 5437.04 0 0 1 0-23.825c-.983 0-1.949.05-2.932-.05-.069-.352-.224-.77.052-1.022Zm17.573 0c.413-.084.862-.067 1.276-.067 3.845.017 7.674-.033 11.519.017.552-.034.38.67.311 1.022-.983.117-1.966.033-2.949.05v11.108a229.005 229.005 0 0 0 3.863-4.171c.327.25.655.502.965.77 1.035 1.223 1.914 2.597 2.88 3.87 2.949 4.072 5.915 8.11 8.847 12.198.672.184 1.396-.017 2.086.134.121.302.086.637.086.972-2.121.134-4.276.016-6.397.05-2.259-.034-4.518.067-6.76-.05a5.954 5.954 0 0 1-.017-.972c.706-.084 1.414-.05 2.103-.067-2.517-3.586-5.104-7.137-7.639-10.74-.035 3.569.017 7.154-.017 10.74.983.067 1.983-.1 2.949.084.138.318.069.653 0 .971-2.622.084-5.243.017-7.847.034-1.759-.034-3.535.067-5.294-.067-.017-.318-.034-.637 0-.972.983-.134 1.983-.05 2.983-.05a5572.76 5572.76 0 0 1 0-23.842c-.965-.017-1.931 0-2.897 0-.12-.318-.224-.67-.051-1.022ZM171.38.895c4.38-.083 8.777-.016 13.175-.033.362.017.775-.084 1.086.15.052.302.086.654-.121.905-1 .101-2 .017-3 .034 2.241 5.144 4.501 10.27 6.76 15.397.69-1.675 1.362-3.35 2.034-5.026.363.168.725.335 1.071.52-1.381 3.45-2.761 6.902-4.14 10.337-.5 1.257-.965 2.513-1.534 3.736-.397.134-.846.15-1.243 0-.723-1.357-1.241-2.831-1.897-4.222a8521.223 8521.223 0 0 0-8.242-18.799c-.277-.636-.518-1.273-.862-1.876-1.018-.235-2.138.134-3.156-.218.018-.301.052-.603.069-.905Z" fill="#fff"/><path d="M81.86.912c.534-.1 1.086-.05 1.62-.05 1.777.017 3.536-.017 5.312.017.552-.034.38.687.328 1.039-1.018.1-2.035.016-3.036.05-.034.05-.12.15-.172.201-1.38 3.502-2.794 6.987-4.19 10.471l-1.19-.25c1.397-3.486 2.81-6.954 4.19-10.439-.948-.033-1.914.05-2.862-.05a1.231 1.231 0 0 1 0-.989Zm44.663 0c1.639-.117 3.277-.016 4.898-.05 1.293.017 2.587-.067 3.863.05.017.302.034.62.017.922-1.328.251-2.708.05-4.053.117-2.207 2.396-4.431 4.775-6.639 7.171-.138.15-.241.335-.327.52-.311-.269-.639-.52-.966-.771 2.138-2.312 4.294-4.591 6.415-6.92-1.069-.033-2.156.084-3.208-.067a6.182 6.182 0 0 1 0-.972Zm66.03 0c2.312-.1 4.64-.033 6.968-.033.585-.084.585 1.106 0 1.072-.915.034-1.828-.017-2.743 0-1.482 3.62-2.913 7.272-4.379 10.89a9.1 9.1 0 0 0-1.069-.519c1.379-3.451 2.776-6.903 4.173-10.354-.966-.067-1.95.1-2.898-.1-.155-.302-.103-.637-.052-.956ZM32.971 37.353c1.086-.687 2.448-.519 3.673-.335-.155.486.069 1.14-.414 1.475-.19-.386-.155-.989-.673-1.14-.828-.285-1.983-.184-2.414.67-.535 1.056-.414 2.53.586 3.301.552.402 1.294.47 1.932.252.051-.436.069-.889.017-1.324-.345-.117-.707-.235-1.052-.386.81-.234 1.673-.083 2.5-.083-.206.2-.482.352-.62.603-.052.47 0 .955.207 1.374-1.121.301-2.346.486-3.45.017-1.706-.754-1.81-3.435-.292-4.424Zm34.368-.385c1.052.1 2.139-.134 3.174.1.896.218 1.206 1.408.706 2.112-.362.687-1.241.82-1.965.787-.018-.084-.035-.268-.052-.352.397-.017.862.05 1.12-.301.415-.52.346-1.374-.172-1.793-.362-.235-.793-.184-1.207-.235a162.723 162.723 0 0 0 0 4.122c.31.084.638.184.949.285-.81.352-1.742.134-2.587.167.155-.285.483-.335.776-.435.12-1.324.103-2.68.034-4.005-.275-.083-.62-.134-.776-.452Zm18.745.033c1.328-.016 2.673.05 4.001-.033a26.32 26.32 0 0 0-.138 1.223c-.086 0-.241 0-.31-.017-.07-.234-.138-.486-.242-.703-.551-.151-1.138-.067-1.69-.067.018.62-.034 1.256-.051 1.876h1.483c.155-.268.276-.586.586-.72.035.636.035 1.29-.017 1.926-.345-.117-.414-.452-.57-.72-.482-.017-.982-.017-1.465-.017-.017.57.017 1.156.086 1.726.328.084.673.167 1 .251-.862.369-1.845.134-2.759.151.259-.2.552-.335.862-.436.138-1.323.121-2.663.018-3.987-.293-.1-.604-.201-.794-.453Zm29.058.168c.517-.368 1.155-.134 1.724-.15.483 1.206 1.087 2.378 1.69 3.535.587-1.157 1.225-2.313 1.707-3.536.552-.033 1.121-.084 1.673-.033-.189.301-.552.335-.879.435-.104.687 0 1.391-.017 2.095.034.62-.018 1.273.155 1.876.276.151.569.268.827.47-.862.016-1.759.184-2.569-.135.276-.117.552-.2.828-.301a30.294 30.294 0 0 0-.052-3.3c-.69 1.272-1.207 2.646-1.914 3.92-.724-1.274-1.155-2.681-1.863-3.971-.051 1.022-.137 2.044-.155 3.083.018.486.724.352.931.72-.776.05-1.569.05-2.345 0 .259-.302.845-.335.88-.787.172-1.19.258-2.413.31-3.62-.293-.1-.621-.2-.931-.3Zm41.542-.167c1.312-.05 2.604.066 3.915-.034-.052.436-.103.888-.172 1.324-.346-.168-.38-.553-.483-.872-.535-.05-1.053-.05-1.587-.016a30.93 30.93 0 0 0 0 1.776c.431 0 .862.016 1.293-.034.19-.218.31-.469.484-.704.172.603.103 1.24.069 1.86-.259-.167-.397-.452-.622-.653-.396-.084-.81-.034-1.224-.05-.017.62-.051 1.24.07 1.86.585.05 1.189.1 1.776 0 .19-.286.362-.587.534-.872.087 0 .241.017.328.033-.105.436-.172.922-.466 1.29-1.362 0-2.742.034-4.105-.016.243-.302.656-.319 1.018-.419.087-1.307.051-2.63.035-3.937-.294-.201-.587-.335-.863-.536ZM81.497 48.696c.535-.234 1.121-.1 1.673-.15.207-.034.414.083.604.167-.242.067-.483.15-.725.218-.069 1.19-.034 2.362 0 3.552.31.117.604.251.88.452-.794-.067-1.656.15-2.415-.15.26-.084.5-.168.76-.252.103-1.19.12-2.396 0-3.586a21.16 21.16 0 0 1-.777-.25Zm21.418-.117c1.173-.05 2.346.067 3.535-.034-.051.352-.086.704-.12 1.056-.069 0-.224 0-.293-.017-.052-.201-.104-.419-.173-.62-.483-.05-.948-.05-1.431-.033a25.372 25.372 0 0 0 0 1.608c.397-.017.793-.017 1.19-.033.12-.218.258-.42.414-.62.086.553.086 1.122.017 1.675-.224-.134-.328-.385-.431-.603-.397-.033-.793-.05-1.19-.067 0 .536-.052 1.089.052 1.625.465.117.948.117 1.414.067.396-.2.5-.72.931-.921-.035.435-.155.854-.276 1.256-1.207.151-2.414-.084-3.621.067V52.7c.241-.05.5-.083.741-.134.138-1.19.052-2.379.052-3.568a5.958 5.958 0 0 1-.811-.42ZM40.75 36.951c.844.1 1.707 0 2.569.033.638 0 1.224.486 1.293 1.106.138.637-.414 1.14-.897 1.475.414.553.81 1.139 1.311 1.625.293.301.741.385 1.035.704-.57.033-1.19.067-1.69-.218-.587-.52-.88-1.257-1.397-1.843-.241-.067-.483-.084-.724-.134 0 .57-.018 1.156.051 1.725.19.134.932.084.69.42-.793.083-1.586.033-2.38 0 .207-.235.518-.32.81-.42.104-1.34.139-2.697.018-4.054-.241-.067-.465-.117-.707-.185 0-.016.017-.167.017-.234Zm1.551.369c-.069.686-.086 1.39-.051 2.094.465-.034 1.017.084 1.362-.285.345-.47.293-1.173-.155-1.575-.345-.251-.776-.201-1.156-.234Zm9.002-.386c.828-.184 1.776-.033 2.414.52 1.052 1.005 1.035 2.814.035 3.853-.949.905-2.639 1.022-3.656.168-.793-.67-1-1.81-.776-2.765.259-.905 1.07-1.592 1.983-1.776Zm.19.319c-.724.083-1.225.77-1.31 1.44-.156.905.085 1.944.827 2.564.69.553 1.931.469 2.345-.352.5-.972.38-2.262-.327-3.1-.397-.402-.983-.636-1.535-.552Zm29.143-.302c1.052-.302 2.346.05 2.915 1.005.517.871.5 2.044-.052 2.916-.862 1.457-3.363 1.608-4.346.2-.655-.938-.69-2.312.035-3.233.345-.452.897-.737 1.448-.888Zm.173.318c-.914.151-1.293 1.123-1.293 1.91.017.67.19 1.374.655 1.877.62.687 1.897.787 2.483 0 .552-.838.5-1.944.086-2.815-.327-.704-1.155-1.123-1.931-.972Zm17.727-.033c1.035-.553 2.26-.386 3.363-.218-.034.436-.069.871-.155 1.307-.5.1-.259-.704-.638-.855a2.215 2.215 0 0 0-2-.05c-.966.603-1.104 1.927-.76 2.899.328.971 1.501 1.558 2.501 1.206.483-.235.742-.704 1.121-1.056.138.503-.241.939-.465 1.358-1.121.318-2.466.351-3.432-.403-1.207-1.105-1.052-3.4.465-4.188Zm9.52-.302c1.017-.268 2.259.034 2.845.922.655 1.022.552 2.48-.276 3.384-.914.955-2.604 1.072-3.656.268-.81-.67-1.017-1.81-.828-2.781.225-.888 1.001-1.575 1.915-1.793Zm-.19.453c-.242.1-.449.25-.569.469-.535.921-.466 2.161.155 3.032.431.62 1.293.905 2.018.637.5-.168.81-.67.914-1.156.189-.855.051-1.81-.501-2.513-.482-.553-1.345-.788-2.017-.47Zm57.218 1.24c-.293-.738.276-1.576 1.035-1.726.603-.151 1.223 0 1.828.067-.035.402-.087.804-.156 1.19-.396.15-.293-.353-.413-.554-.311-.67-1.605-.536-1.621.268-.087.855.965 1.09 1.534 1.492.725.318 1.018 1.24.604 1.91-.604.904-1.983.955-2.88.486-.034-.42-.449-1.056 0-1.34.173.267.31.569.5.854.31.385.897.502 1.345.335.552-.235.587-1.09.087-1.408-.638-.486-1.553-.77-1.863-1.575Zm-39.715-1.475c.483-.318 1.052-.084 1.587-.15.724-.034 1.604-.152 2.155.418.742.72.345 2.111-.638 2.43-.431.117-1.052.318-1.327-.168.396-.084.862-.017 1.189-.302.449-.486.431-1.357-.086-1.792-.345-.302-.828-.235-1.242-.268-.034 1.373-.069 2.747.018 4.121.327.1.707.134.914.436-.863.05-1.742.05-2.622 0 .259-.168.535-.285.794-.453.172-.62.069-1.273.086-1.893-.017-.687.069-1.374-.069-2.044-.224-.15-.5-.234-.759-.335Zm9.933-.134c.19-.017.397-.017.587-.034.534 1.391 1 2.798 1.621 4.156.155.402.655.435.948.72-.828.067-1.673.067-2.5 0 .207-.184.465-.318.724-.436-.155-.469-.328-.938-.5-1.407-.518-.017-1.018-.017-1.535-.017-.172.453-.345.922-.466 1.39.294.118.621.219.828.47-.776.05-1.569.05-2.345 0 .31-.318.879-.352 1.034-.804a40.911 40.911 0 0 0 1.604-4.038Zm-.483 2.597h1.208c-.173-.553-.363-1.123-.604-1.642a15.65 15.65 0 0 0-.604 1.642Zm6.502-2.63c.534-.017 1.086 0 1.638.05 1.017 1.256 2.052 2.513 3.138 3.72-.017-1.09.035-2.179-.051-3.268-.345-.117-.707-.218-1.052-.335.707-.352 1.534-.067 2.294-.184.034.368-.397.352-.656.486-.155 1.507-.104 3.015-.121 4.523-.207-.033-.414-.033-.62-.083-1.07-1.24-2.018-2.564-3.105-3.77 0 1.022-.086 2.044.052 3.049.017.419.518.369.811.486 0 .067-.018.201-.018.251h-2.138c0-.067.017-.184.017-.251.242-.067.466-.134.707-.201.138-1.29.138-2.597.087-3.887-.311-.218-.759-.251-.983-.587ZM75.549 49.901c-.224-.737.466-1.458 1.225-1.458.43 0 .965-.067 1.345.201-.052.352-.017.771-.293 1.04-.121-.269-.19-.553-.328-.805-.328-.167-.759-.218-1.07 0a.72.72 0 0 0-.034 1.072c.535.52 1.432.62 1.776 1.34.276.537-.034 1.157-.5 1.492-.5.335-1.172.335-1.741.184-.621-.05-.587-.871-.552-1.323.293-.068.31.368.483.52.241.535.896.585 1.414.535.207-.302.43-.704.207-1.055-.604-.654-1.76-.805-1.932-1.743Zm20.935-1.106c.932-.52 2.035-.368 3.035-.218-.051.436-.086.872-.172 1.307-.241-.285-.328-.653-.57-.921-.723-.335-1.758-.302-2.241.419-.569.921-.466 2.312.448 2.999.5.335 1.208.435 1.742.15.328-.234.535-.603.845-.87.086.468-.155 1.005-.569 1.24-.741.234-1.604.234-2.345-.051-1.621-.654-1.707-3.25-.173-4.055Zm19.452-.033c.621-.335 1.501-.15 1.846.469.5.838.31 1.96-.293 2.714-.604.67-1.415 1.29-2.363 1.324.396-.453.983-.654 1.397-1.073.276-.284.465-.62.655-.955-.517.135-1.173.436-1.638.017-.897-.636-.569-2.094.396-2.496Zm.035 1.927c.31.402.845.301 1.276.2.224-.686.121-1.675-.69-1.943-.914-.067-1.121 1.223-.586 1.743Zm2.949-1.542c.517-.57 1.517-.754 2.138-.218.535.537.621 1.374.431 2.078-.362 1.206-1.535 2.078-2.759 2.329.121-.436.604-.52.931-.788.466-.318.776-.804 1.035-1.29-.5.117-1.086.386-1.569.067-.742-.469-.794-1.575-.207-2.178Zm.983-.184c-.707.084-.897.972-.587 1.508.225.553 1.018.703 1.466.318.259-.67-.034-1.793-.879-1.826ZM58.372 36.935c.742.134 1.535-.101 2.225.2-.242.151-.62.151-.776.403a58.9 58.9 0 0 0 0 2.48c.017.586.345 1.24.966 1.407.517.134 1.207.134 1.586-.319.362-.385.345-.938.38-1.424 0-.754.034-1.508-.07-2.262-.31-.117-.724-.117-.879-.469.759.017 1.5.017 2.26.017-.242.201-.518.369-.76.553-.19 1.14.087 2.362-.345 3.468-.31.788-1.276 1.056-2.069 1.022-.741 0-1.586-.352-1.759-1.122-.224-1.157 0-2.346-.19-3.502-.207-.067-.413-.117-.603-.168.017-.05.034-.2.034-.284Zm92.485.016c.775.118 1.602-.1 2.344.185-.259.134-.603.167-.811.385 0 1.307-.069 2.614.036 3.92.31.101.689.118.879.42-.863.066-1.725.033-2.587 0 .241-.185.534-.319.793-.486.172-.67.051-1.358.087-2.044-.036-.637.085-1.307-.087-1.927-.224-.084-.449-.134-.672-.201.018-.05.018-.185.018-.252ZM.034 39.062h27.868c0 .218.017.453.017.687-9.312-.017-18.607 0-27.919 0 .017-.234.034-.469.034-.687Zm171.982-.017c9.227.017 18.469 0 27.696.017.431-.067.241.436.275.67h-27.989c0-.217 0-.452.018-.687Zm-59.839 9.92c.431-.135.862-.236 1.293-.386 0 1.307-.051 2.63.035 3.937.293.1.621.168.81.436-.776 0-1.552-.05-2.328.05 0-.067 0-.218-.017-.285.259-.05.5-.1.759-.167.034-1.09.017-2.178.017-3.267-.19-.118-.862.033-.569-.319Zm10.45 0c.449-.101.897-.236 1.345-.37.035 1.307-.051 2.63.052 3.938.276.1.621.15.793.419-.776 0-1.552-.05-2.328.033v-.251c.242-.067.501-.117.725-.201.103-1.072.017-2.145.034-3.217-.207-.117-.672 0-.621-.352ZM86.672 48.696c.569-.2 1.431-.335 1.776.252a66.258 66.258 0 0 0 2.483 2.932c0-.955.052-1.927-.034-2.882-.19-.15-.983-.084-.707-.419.638-.034 1.276 0 1.914-.017-.207.201-.448.335-.69.47a61.546 61.546 0 0 0-.086 3.987c-.259-.05-.586-.017-.724-.285-.845-1.072-1.725-2.128-2.587-3.2-.017.989-.052 1.96.034 2.949.31.117.621.234.863.452-.742 0-1.483.017-2.225-.067.259-.15.535-.268.828-.402.052-1.123.138-2.245.069-3.368-.224-.234-.621-.25-.914-.402Z" fill="#fff"/></svg>