<svg width="303" height="40" fill="none" xmlns="http://www.w3.org/2000/svg"><path d="m21.142 11.144-4.385 4.409-4.389-4.409A6.25 6.25 0 0 1 14.38.975a6.179 6.179 0 0 1 6.763 1.353 6.256 6.256 0 0 1 0 8.816ZM12.37 23.53l4.387-4.408 4.385 4.408a6.25 6.25 0 0 1 0 8.817 6.18 6.18 0 0 1-8.772 0 6.257 6.257 0 0 1 0-8.817ZM22.92 21.745l-4.387-4.408 4.387-4.408a6.18 6.18 0 0 1 8.773 0 6.25 6.25 0 0 1 0 8.816 6.186 6.186 0 0 1-8.773 0ZM10.594 12.93l4.387 4.409-4.387 4.406a6.18 6.18 0 0 1-8.775 0A6.25 6.25 0 0 1 3.83 11.576a6.18 6.18 0 0 1 6.764 1.353v.002ZM256.174 10.875h-18.13v5.1h6.426v15.463h5.28V15.974h6.424v-5.099ZM81.477 27.203c2.046 0 3.683-.866 4.584-2.056l4.256 2.468c-1.925 2.795-4.992 4.4-8.923 4.4-6.876 0-11.213-4.73-11.213-10.857 0-6.125 4.38-10.857 10.805-10.857 6.056 0 10.355 4.813 10.355 10.857 0 .782-.083 1.483-.204 2.18H75.706c.737 2.714 2.99 3.865 5.771 3.865Zm4.584-7.98c-.655-2.96-2.865-4.151-5.075-4.151-2.826 0-4.747 1.52-5.363 4.152h10.438Zm30.868 1.936c0 6.127-4.501 10.857-9.986 10.857-2.989 0-5.159-1.111-6.629-3.003V39.66h-5.283V10.877h5.283v2.425c1.47-1.89 3.64-3.003 6.629-3.003 5.485 0 9.986 4.736 9.986 10.86Zm-5.277 0c0-3.454-2.418-5.8-5.692-5.8-3.23 0-5.646 2.344-5.646 5.798 0 3.457 2.416 5.802 5.646 5.802 3.272 0 5.692-2.345 5.692-5.802v.002Zm19.245 6.044c2.046 0 3.682-.866 4.585-2.056l4.254 2.468c-1.923 2.795-4.991 4.4-8.922 4.4-6.876 0-11.215-4.73-11.215-10.857 0-6.125 4.379-10.857 10.805-10.857 6.054 0 10.355 4.813 10.355 10.857 0 .782-.083 1.483-.204 2.18h-15.432c.74 2.714 2.99 3.865 5.776 3.865h-.002Zm4.585-7.98c-.654-2.96-2.866-4.151-5.076-4.151-2.826 0-4.747 1.52-5.363 4.152h10.439Zm53.872 1.936c0 6.127-4.504 10.857-9.985 10.857-2.99 0-5.159-1.111-6.63-3.003V39.66h-5.282V10.877h5.282v2.425c1.471-1.89 3.64-3.003 6.63-3.003 5.484 0 9.985 4.736 9.985 10.86Zm-5.276 0c0-3.454-2.418-5.8-5.693-5.8-3.23 0-5.646 2.344-5.646 5.798 0 3.457 2.416 5.802 5.646 5.802 3.273 0 5.693-2.345 5.693-5.802v.002Zm19.242 6.044c2.047 0 3.683-.866 4.586-2.056l4.254 2.468c-1.923 2.795-4.992 4.4-8.922 4.4-6.877 0-11.216-4.73-11.216-10.857 0-6.125 4.38-10.857 10.805-10.857 6.057 0 10.353 4.813 10.353 10.857 0 .782-.081 1.483-.202 2.18h-15.431c.739 2.714 2.992 3.865 5.773 3.865Zm-7.407-21.262c0-1.52 1.266-2.797 2.781-2.797 1.515 0 2.744 1.274 2.744 2.797a2.752 2.752 0 0 1-4.701 1.95 2.782 2.782 0 0 1-.824-1.95Zm11.993 13.283c-.655-2.96-2.867-4.152-5.077-4.152-2.826 0-4.747 1.52-5.361 4.152h10.438ZM203.69 5.94c0-1.52 1.27-2.797 2.782-2.797 1.515 0 2.743 1.274 2.743 2.797a2.75 2.75 0 0 1-2.743 2.757 2.784 2.784 0 0 1-2.782-2.757Zm11.958 15.218c0-6.126 4.586-10.86 10.805-10.86 4.012 0 7.491 2.14 9.169 5.306l-4.543 2.674c-.822-1.689-2.579-2.755-4.666-2.755-3.155 0-5.486 2.343-5.486 5.633 0 3.251 2.331 5.594 5.486 5.594 2.127 0 3.887-1.028 4.705-2.715l4.585 2.632c-1.761 3.207-5.242 5.346-9.25 5.346-6.219 0-10.805-4.728-10.805-10.857v.002Zm42.253 0c0-6.126 4.785-10.86 10.805-10.86 6.016 0 10.846 4.73 10.846 10.858 0 6.129-4.83 10.857-10.846 10.857-6.018 0-10.805-4.728-10.805-10.857v.002Zm16.37 0c0-3.33-2.416-5.677-5.565-5.677-3.113 0-5.527 2.344-5.527 5.675 0 3.334 2.416 5.678 5.527 5.678 3.151 0 5.565-2.344 5.565-5.678v.002Zm-116.418 10.28h6.141l-7.835-10.404 7.588-10.156h-6.3l-5.908 8.345h-1.806v-8.345h-5.282v20.56h5.282v-8.103h2.21l5.91 8.104v-.002Zm137.831-20.56-5.907 8.345h-1.805v-8.345h-5.281v20.56h5.281v-8.103h2.212l5.908 8.104h6.14l-7.833-10.405 7.587-10.156h-6.302ZM66.716 31.439h-5.652V8.452H50.958v22.985H45.31V3.148h21.406v28.29Z" fill="#fff"/></svg>