<svg width="72" height="73" fill="none" xmlns="http://www.w3.org/2000/svg"><g filter="url('#filter0_d_1904_341')"><mask id="mask0_1904_341" style="mask-type:alpha" maskUnits="userSpaceOnUse" x="0" y="0" width="70" height="69"><circle cx="35" cy="34.5" r="34.5" fill="#C4C4C4"/></mask><g mask="url('#mask0_1904_341')"><path opacity=".4" d="M63.46 48.575c8.237-11.31 4.037-28.4-9.38-38.173C40.662.63 23.108 1.874 14.87 13.182c-8.237 11.31-4.037 28.4 9.38 38.173 13.418 9.773 30.972 8.528 39.21-2.78Z" fill="url('#paint0_radial_1904_341')"/><g filter="url('#filter1_d_1904_341')"><circle cx="34.999" cy="34.5" r="30" fill="#fff"/></g><path opacity=".4" d="M63.46 48.575c8.238-11.31 4.038-28.4-9.38-38.173C40.664.63 23.11 1.874 14.872 13.182c-8.237 11.31-4.037 28.4 9.38 38.173 13.418 9.773 30.972 8.528 39.21-2.78Z" fill="url('#paint1_radial_1904_341')"/><path d="M40.735 51.733H28.604c-1.811 0-3.272-1.393-3.272-3.107V20.375c0-1.72 1.467-3.108 3.272-3.108h12.124c1.811 0 3.272 1.393 3.272 3.108V48.62c.006 1.72-1.46 3.114-3.265 3.114ZM25.332 20.476h18.587M25.332 45.986h18.587M32.624 48.69h4.002" stroke="#000" stroke-width="1.3" stroke-miterlimit="10" stroke-linecap="round" stroke-linejoin="round"/></g></g><defs><radialGradient id="paint0_radial_1904_341" cx="0" cy="0" r="1" gradientUnits="userSpaceOnUse" gradientTransform="matrix(-43.58552 -10.78148 14.68656 -59.3723 51.9 38.724)"><stop offset=".107" stop-color="#E3E3E4" stop-opacity="0"/><stop offset=".228" stop-color="#E3E3E4" stop-opacity="0"/><stop offset=".6" stop-color="#E3E3E4" stop-opacity=".08"/><stop offset=".874" stop-color="#E3E3E4" stop-opacity=".6"/><stop offset="1" stop-color="#E3E3E4"/></radialGradient><radialGradient id="paint1_radial_1904_341" cx="0" cy="0" r="1" gradientUnits="userSpaceOnUse" gradientTransform="matrix(-43.58552 -10.78148 14.68656 -59.3723 51.901 38.724)"><stop offset=".107" stop-color="#E3E3E4" stop-opacity="0"/><stop offset=".228" stop-color="#E3E3E4" stop-opacity="0"/><stop offset=".6" stop-color="#E3E3E4" stop-opacity=".08"/><stop offset=".874" stop-color="#E3E3E4" stop-opacity=".6"/><stop offset="1" stop-color="#E3E3E4"/></radialGradient><filter id="filter0_d_1904_341" x=".999" y="3.814" width="70.679" height="68.686" filterUnits="userSpaceOnUse" color-interpolation-filters="sRGB"><feFlood flood-opacity="0" result="BackgroundImageFix"/><feColorMatrix in="SourceAlpha" values="0 0 0 0 0 0 0 0 0 0 0 0 0 0 0 0 0 0 127 0" result="hardAlpha"/><feOffset dy="4"/><feGaussianBlur stdDeviation="2"/><feColorMatrix values="0 0 0 0 0 0 0 0 0 0 0 0 0 0 0 0 0 0 0.02 0"/><feBlend in2="BackgroundImageFix" result="effect1_dropShadow_1904_341"/><feBlend in="SourceGraphic" in2="effect1_dropShadow_1904_341" result="shape"/></filter><filter id="filter1_d_1904_341" x="-.001" y=".5" width="70" height="70" filterUnits="userSpaceOnUse" color-interpolation-filters="sRGB"><feFlood flood-opacity="0" result="BackgroundImageFix"/><feColorMatrix in="SourceAlpha" values="0 0 0 0 0 0 0 0 0 0 0 0 0 0 0 0 0 0 127 0" result="hardAlpha"/><feOffset dy="1"/><feGaussianBlur stdDeviation="2.5"/><feComposite in2="hardAlpha" operator="out"/><feColorMatrix values="0 0 0 0 0 0 0 0 0 0 0 0 0 0 0 0 0 0 0.15 0"/><feBlend in2="BackgroundImageFix" result="effect1_dropShadow_1904_341"/><feBlend in="SourceGraphic" in2="effect1_dropShadow_1904_341" result="shape"/></filter></defs></svg>