<svg width="74" height="73" fill="none" xmlns="http://www.w3.org/2000/svg"><g filter="url('#filter0_d_1904_359')"><g filter="url('#filter1_d_1904_359')"><mask id="mask0_1904_359" style="mask-type:alpha" maskUnits="userSpaceOnUse" x="-1" y="-3" width="76" height="75"><circle cx="37" cy="34.5" r="37.5" fill="#C4C4C4"/></mask><g mask="url('#mask0_1904_359')"><g filter="url('#filter2_d_1904_359')"><circle cx="35.5" cy="34.5" r="30" fill="#fff"/></g><path opacity=".4" d="M65.563 50.395c8.667-11.596 4.248-29.12-9.87-39.14-14.117-10.021-32.589-8.745-41.256 2.85-8.667 11.596-4.248 29.12 9.87 39.14 14.118 10.021 32.589 8.745 41.256-2.85Z" fill="url('#paint0_radial_1904_359')"/></g><mask id="mask1_1904_359" style="mask-type:alpha" maskUnits="userSpaceOnUse" x="20" y="19" width="33" height="31"><path fill="#C4C4C4" d="M20.5 19.5h32.081v29.745H20.5z"/></mask><g mask="url('#mask1_1904_359')"><mask id="mask2_1904_359" style="mask-type:alpha" maskUnits="userSpaceOnUse" x="20" y="19" width="33" height="31"><path fill="#C4C4C4" d="M20 19.5h32.081v29.745H20z"/></mask><g mask="url('#mask2_1904_359')" stroke="#020203" stroke-width="1.5" stroke-miterlimit="10" stroke-linecap="round" stroke-linejoin="round"><path d="M47.67 32.983a.527.527 0 0 1-.066.068l-4.38 3.763a2 2 0 0 1-2.983-.432l-4.294-6.65v0a.006.006 0 0 0-.011 0v0l-4.138 6.7a2 2 0 0 1-2.918.537l-5.18-3.968a.541.541 0 0 1-.069-.064v0a.537.537 0 0 0-.929.428l.037.302 1.46 11.939v0c0 .006.005.01.011.01h.002l.006.002c2.878 1.773 6.913 2.882 11.389 2.882 4.54 0 8.63-1.142 11.513-2.963v0c.455-.301.743-.798.779-1.343l.681-10.447.026-.398a.527.527 0 0 0-.936-.366v0ZM44.428 27.821l2.708-2.963M35.992 25.126V20.5M26.568 27.821l-2.709-2.963"/></g></g></g></g><defs><filter id="filter0_d_1904_359" x="1.5" y="4.5" width="72.5" height="68" filterUnits="userSpaceOnUse" color-interpolation-filters="sRGB"><feFlood flood-opacity="0" result="BackgroundImageFix"/><feColorMatrix in="SourceAlpha" values="0 0 0 0 0 0 0 0 0 0 0 0 0 0 0 0 0 0 127 0" result="hardAlpha"/><feOffset dy="4"/><feGaussianBlur stdDeviation="2"/><feColorMatrix values="0 0 0 0 0 0 0 0 0 0 0 0 0 0 0 0 0 0 0.02 0"/><feBlend in2="BackgroundImageFix" result="effect1_dropShadow_1904_359"/><feBlend in="SourceGraphic" in2="effect1_dropShadow_1904_359" result="shape"/></filter><filter id="filter1_d_1904_359" x="1.5" y="4.5" width="72.5" height="68" filterUnits="userSpaceOnUse" color-interpolation-filters="sRGB"><feFlood flood-opacity="0" result="BackgroundImageFix"/><feColorMatrix in="SourceAlpha" values="0 0 0 0 0 0 0 0 0 0 0 0 0 0 0 0 0 0 127 0" result="hardAlpha"/><feOffset dy="4"/><feGaussianBlur stdDeviation="2"/><feColorMatrix values="0 0 0 0 0 0 0 0 0 0 0 0 0 0 0 0 0 0 0.02 0"/><feBlend in2="BackgroundImageFix" result="effect1_dropShadow_1904_359"/><feBlend in="SourceGraphic" in2="effect1_dropShadow_1904_359" result="shape"/></filter><filter id="filter2_d_1904_359" x=".5" y=".5" width="70" height="70" filterUnits="userSpaceOnUse" color-interpolation-filters="sRGB"><feFlood flood-opacity="0" result="BackgroundImageFix"/><feColorMatrix in="SourceAlpha" values="0 0 0 0 0 0 0 0 0 0 0 0 0 0 0 0 0 0 127 0" result="hardAlpha"/><feOffset dy="1"/><feGaussianBlur stdDeviation="2.5"/><feComposite in2="hardAlpha" operator="out"/><feColorMatrix values="0 0 0 0 0 0 0 0 0 0 0 0 0 0 0 0 0 0 0.15 0"/><feBlend in2="BackgroundImageFix" result="effect1_dropShadow_1904_359"/><feBlend in="SourceGraphic" in2="effect1_dropShadow_1904_359" result="shape"/></filter><radialGradient id="paint0_radial_1904_359" cx="0" cy="0" r="1" gradientUnits="userSpaceOnUse" gradientTransform="matrix(-45.86066 -11.05505 14.7177 -61.05474 53.4 40.295)"><stop offset=".107" stop-color="#E3E3E4" stop-opacity="0"/><stop offset=".228" stop-color="#E3E3E4" stop-opacity="0"/><stop offset=".6" stop-color="#E3E3E4" stop-opacity=".08"/><stop offset=".874" stop-color="#E3E3E4" stop-opacity=".6"/><stop offset="1" stop-color="#E3E3E4"/></radialGradient></defs></svg>