<svg width="152" height="34" fill="none" xmlns="http://www.w3.org/2000/svg"><path fill-rule="evenodd" clip-rule="evenodd" d="M61.396.806C65.084.034 68.88.84 72.41 1.92c-.459 1.618-.94 3.229-1.427 4.84-2.986-1.02-6.236-1.666-9.365-.937-2.475.668-3.831 3.993-1.636 5.715 3.768 2.953 9.558 3.146 12.35 7.352 2.79 4.076 1.248 10.203-3.237 12.544-5.216 2.788-11.753 2.168-17.02-.193.438-1.632.868-3.263 1.27-4.902 3.645 1.446 7.915 2.857 11.76 1.226 2.656-1.06 3.05-4.916.783-6.534-3.43-2.395-8.101-2.809-11.05-5.927-2.325-2.128-2.29-5.487-1.708-8.29 1.177-3.373 4.7-5.541 8.266-6.01Zm15.678 5.26 6.042-2.72-.029 6.382 5.49.041-1.222 4.3-4.181-.004.086 9.712c.008.909.014 1.816.122 2.722.56 2.168 3.264 1.982 5.058 1.597 0 1.556.007 3.112.022 4.674-2.928.572-6.322.985-8.876-.86-2.225-1.721-2.526-4.689-2.533-7.229l.021-18.616Zm20.4 3.882c5.052-1.776 11.525-.53 14.545 3.993 3.251 4.95 2.82 12.29-1.765 16.372-5.015 4.35-14.064 3.958-18.089-1.48-4.643-6.024-2.447-16.344 5.31-18.885Zm2.849 3.959c-4.305 1.81-5.023 7.456-3.408 11.235.983 2.837 4.771 4.992 7.577 3.043 3.803-2.747 4.004-8.433 1.787-12.165-1.134-2.072-3.717-2.726-5.956-2.113Zm21.103-3.16c2.892-1.535 6.307-1.632 9.529-1.487-.373 1.59-.796 3.174-1.234 4.75-1.684.126-3.959.187-5.311 1.234-1.133.876-1.377 2.841-1.382 4.172l-.066 13.768-6.056.04-.101-14.064c-.064-3.305 1.607-6.713 4.621-8.413Zm10.654 3.318c3.208-5.19 11.502-6.588 16.274-2.61 3.272 2.886 3.81 7.457 3.609 11.484l-16.109.049c.201 2.697 1.555 4.315 4.154 5.203 3.049 1.042 6.656.246 9.731-.48l.918 4.137c-5.367 1.687-11.954 2.485-16.711-1.074-4.958-4.014-5.145-11.656-1.866-16.709Zm3.515 4.592 10.799.02c-.645-2.313-1.679-5.225-4.656-5.39-3.38-.351-5.454 2.78-6.143 5.37ZM18.852 18.685l10.691-.007c-.172-1.83-1.42-4.943-4.162-5.308-1.424-.293-2.661.085-3.675.827-1.438 1.052-2.614 2.84-2.854 4.488Zm24.698-8.86c2.2 0 3.982 1.712 3.982 3.822 0 2.11-1.783 3.82-3.982 3.82-2.2 0-3.983-1.71-3.983-3.82s1.783-3.821 3.983-3.821Zm0 15.222c2.2 0 3.982 1.711 3.982 3.822 0 2.11-1.783 3.821-3.982 3.821-2.2 0-3.983-1.71-3.983-3.82 0-2.112 1.783-3.823 3.983-3.823ZM15.53 13.666c3.395-4.874 11.324-6.031 16.002-2.245 3.258 2.892 4.076 7.47 3.523 11.532l-16.195.041c.3 1.894 1.378 3.877 3.315 4.771 3.38 1.611 7.355.84 10.82-.117l.869 4.166c-5.08 1.666-11.158 2.41-15.915-.49-5.848-3.834-6.25-12.364-2.419-17.658ZM4.084 11.099c2.928-1.852 6.58-1.97 9.975-1.9-.302 1.68-.768 3.318-1.285 4.943-2.432-.103-5.797.275-6.336 3.077-.358 5.308-.064 10.63-.165 15.945l-6.25.034-.021-14.024c-.065-3.098 1.435-6.258 4.082-8.075Z" fill="#fff"/></svg>