<svg width="47" height="53" fill="none" xmlns="http://www.w3.org/2000/svg"><path fill-rule="evenodd" clip-rule="evenodd" d="m9.5 16.032 8.803-9.849c1.43-1.584 3.468-.05 3.468-.05s9.686 6.261 10.883 7.145a3.784 3.784 0 0 1 1.426 2.207s3.557 23.852 3.73 25.86c.186 2.018-1.402 2.574-1.402 2.574s-18.782 2.532-21.1 2.607c-2.318.076-2.435-1.64-2.435-1.64s-3.64-25.697-3.93-26.76c-.292-1.062.558-2.094.558-2.094Zm10.582 1.811c2.237.603 4.525-.682 5.107-2.868.583-2.186-.759-4.45-2.996-5.052-2.237-.602-4.525.683-5.108 2.869-.582 2.186.76 4.449 2.997 5.051Z" fill="#006DF0"/><path d="m18.303 6.183-.742-.672-.003.004.745.668Zm-8.802 9.849-.746-.669a.965.965 0 0 0-.026.031l.772.638Zm12.27-9.9-.599.8a.992.992 0 0 0 .058.041l.541-.84Zm10.883 7.146-.592.805.001.001.59-.806Zm1.426 2.207.988-.146-.002-.018-.986.164Zm3.73 25.86-.995.083v.006l.995-.09Zm-1.402 2.574.135.992a.997.997 0 0 0 .197-.047l-.332-.945Zm-21.1 2.607.035 1-.035-1Zm-2.435-1.64.997-.066a.973.973 0 0 0-.007-.072l-.99.138Zm-3.93-26.76-.965.264.964-.263Zm8.615-12.611-8.803 9.848 1.49 1.337L19.05 6.85l-1.491-1.336Zm4.213.618c.6-.8.599-.8.598-.8l-.002-.002-.004-.003-.01-.007-.029-.021a4.819 4.819 0 0 0-.41-.256 4.845 4.845 0 0 0-1.083-.446c-.91-.245-2.22-.251-3.27.913l1.484 1.344c.379-.42.803-.45 1.27-.325a2.845 2.845 0 0 1 .856.402l.006.004h-.001l-.002-.002-.001-.001.598-.8Zm11.475 6.34c-.63-.464-3.387-2.274-5.938-3.937a1723.415 1723.415 0 0 0-4.887-3.173c-.036-.023-.063-.04-.081-.053-.01-.005-.017-.01-.021-.013l-.005-.003-.002-.001-.54.84a624.602 624.602 0 0 0-.541.84l.001.001.005.004.021.013.081.052.31.2a1737.745 1737.745 0 0 1 4.57 2.97c2.591 1.688 5.275 3.45 5.843 3.87l1.184-1.61Zm.834 3.012c.986-.164.985-.165.985-.165v-.006l-.002-.01a1.542 1.542 0 0 0-.02-.093 4.802 4.802 0 0 0-.32-.92 4.741 4.741 0 0 0-1.479-1.819l-1.18 1.612c.431.318.694.719.85 1.052a2.796 2.796 0 0 1 .182.523v-.007l-.001-.002.985-.165Zm4.726 25.775c-.09-1.043-1.03-7.556-1.937-13.742a5319.86 5319.86 0 0 0-1.647-11.15l-.114-.76-.03-.2-.007-.051-.002-.013v-.004l-.989.145-.988.146v.004l.002.013.008.05.03.2a2990.766 2990.766 0 0 1 .518 3.49c.336 2.267.786 5.31 1.242 8.417.915 6.242 1.84 12.658 1.923 13.623l1.991-.168Zm-2.398 2.66a85.558 85.558 0 0 0 .334.943h.002l.006-.003a.656.656 0 0 1 .012-.004l.032-.012.09-.038a3.338 3.338 0 0 0 1.019-.725c.556-.584 1.024-1.507.902-2.827l-1.99.18c.065.699-.169 1.063-.36 1.262a1.351 1.351 0 0 1-.387.28l-.01.005.005-.002c.001 0 .003 0 .005-.002h.004l.002-.002c.001 0 .002 0 .334.944Zm-21.065 3.606c1.221-.04 6.567-.702 11.514-1.34a1803.113 1803.113 0 0 0 9.474-1.246l.158-.022.04-.005.01-.002h.004l-.135-.992-.136-.991h-.003l-.01.001a25.96 25.96 0 0 0-.04.006l-.158.021-.6.08a2012.043 2012.043 0 0 1-8.863 1.166c-5.024.647-10.228 1.288-11.325 1.324l.07 2Zm-2.47-2.64-.997.067v.005l.001.006a.54.54 0 0 0 .005.052 2.628 2.628 0 0 0 .087.419c.073.247.208.576.458.904.538.708 1.472 1.234 2.916 1.187l-.07-2c-.873.028-1.157-.265-1.257-.397a.812.812 0 0 1-.147-.33l-.001-.005v.01a.323.323 0 0 1 .002.011v.004l-.997.067ZM7.978 18.389l.02.096.052.286c.041.24.094.565.158.965.126.8.292 1.888.483 3.166.382 2.556.864 5.866 1.337 9.144a5271.029 5271.029 0 0 1 1.815 12.69l.03.215.008.055.002.014v.004l.99-.138.99-.139-.001-.004-.002-.014-.008-.055-.03-.215-.116-.818a4882.505 4882.505 0 0 0-1.7-11.877c-.473-3.279-.956-6.593-1.338-9.154-.192-1.28-.358-2.374-.486-3.183-.122-.766-.221-1.361-.276-1.563l-1.928.526Zm1.523-2.357c-.772-.638-.772-.637-.773-.637l-.001.002-.002.002-.005.007a1.144 1.144 0 0 0-.056.071 4.37 4.37 0 0 0-.463.79c-.221.492-.456 1.27-.223 2.123l1.928-.526c-.058-.211-.014-.48.117-.77a2.372 2.372 0 0 1 .242-.415l.012-.015c0-.001 0-.001 0 0l-.002.002-.001.001v.001h-.001l-.772-.636Zm14.723-1.318c-.435 1.632-2.159 2.627-3.884 2.163l-.516 1.932c2.75.74 5.6-.833 6.331-3.574l-1.931-.52Zm-2.288-3.824c1.725.464 2.723 2.194 2.288 3.824l1.931.52c.73-2.74-.956-5.537-3.704-6.277l-.515 1.933Zm-3.885 2.162c.435-1.631 2.159-2.627 3.885-2.162l.515-1.933c-2.749-.74-5.6.833-6.331 3.575l1.931.52Zm2.289 3.825c-1.726-.465-2.724-2.194-2.289-3.825l-1.931-.52c-.73 2.741.956 5.537 3.704 6.277l.516-1.932Z" fill="#006DF0"/><path d="M21.195 13.137c.034-.129-1.886-5.414-3.983-8.232-2.224-2.99-4.493-4.163-5.448-3.297-.947.867-1.808 3.18 3.401 8.083" stroke="#006DF0" stroke-width="2" stroke-miterlimit="10" stroke-linecap="round" stroke-linejoin="round"/><path d="M28.682 23.867 18.061 37.293M20.935 27.602c-.358 1.342-1.755 2.127-3.128 1.757-1.373-.37-2.193-1.752-1.835-3.094.357-1.341 1.755-2.126 3.128-1.756 1.373.37 2.19 1.759 1.835 3.093ZM30.807 34.759c-.358 1.342-1.755 2.127-3.128 1.757-1.373-.37-2.193-1.752-1.835-3.094.357-1.341 1.755-2.126 3.128-1.756 1.373.37 2.193 1.751 1.835 3.093Z" stroke="#fff" stroke-width="2" stroke-miterlimit="10" stroke-linecap="round" stroke-linejoin="round"/></svg>