<svg width="502" height="56" fill="none" xmlns="http://www.w3.org/2000/svg"><path fill-rule="evenodd" clip-rule="evenodd" d="M.06 2.045C-.04 1.353.6.753 1.28.837 15.566.797 29.856.845 44.142.813c.728-.032 1.444.124 2.144.328-.012 2.744.068 5.493-.024 8.233-.316.7-1.104.589-1.732.604-5.473-.028-10.946 0-16.418-.015.032 12.389-.005 24.783.016 37.172-.169.176-.512.529-.685.705-2.756.06-5.512 0-8.268.035-.204-.163-.605-.488-.805-.652-.012-12.421.028-24.843-.024-37.265-5.677.012-11.353.02-17.03 0C.68 10.091.36 9.523 0 9.122c.128-2.356.004-4.716.06-7.077Zm55.614 5.687C57.262 3.687 61.446.875 65.779.83 75.916.806 86.062.822 96.2.822c.748-.075 1.656.356 1.516 1.236-.016 2.48.16 4.982-.14 7.45-1.4.256-2.828.188-4.24.18-9.642-.004-19.287.007-28.928-.008-.264.5-.584 1.004-.516 1.6 0 2.773.012 5.545.007 8.32 8.29.017 16.579.08 24.868-.03.392.36.96.675.832 1.307.016 2.344.048 4.693-.032 7.037-.184.14-.544.428-.724.572-8.317.032-16.634-.04-24.951.037.023 3.264-.016 6.524.02 9.789.16.175.487.52.648.696 10.657.043 21.319-.004 31.976.02.488-.052.804.396 1.196.612-.008 2.532.004 5.06 0 7.593-.156.156-.472.464-.632.62-10.454.024-20.903-.004-31.356.016-4.665.008-9.098-3.325-10.417-7.79-.7-2.056-.544-4.256-.556-6.388.007-6.797.012-13.594 0-20.395-.024-1.884.135-3.82.904-5.564ZM107.327.825c3.089.004 6.177-.032 9.27.02.928-.016 1.763.512 2.291 1.256 3.757 4.917 7.55 9.805 11.314 14.714.668.888 1.288 1.832 2.157 2.549 4.404-5.802 8.86-11.566 13.31-17.335.531-.84 1.508-1.26 2.487-1.204 2.993-.02 5.989.008 8.982-.008-.044.568-.2 1.116-.564 1.56-5.493 7.35-11.082 14.626-16.579 21.975 4.481 6.001 9.026 11.954 13.535 17.939 1.272 1.7 2.652 3.332 3.736 5.168-.62.236-1.252.46-1.917.408-2.408-.012-4.812.004-7.217-.004-.868.028-1.771-.304-2.292-1.024-4.596-5.82-9.029-11.773-13.622-17.594-4.4 5.776-8.865 11.501-13.286 17.266-.559.756-1.391 1.44-2.396 1.34-3.088-.052-6.201.188-9.273-.152.236-.556.476-1.116.828-1.612 5.329-7.097 10.714-14.154 16.046-21.25.545-.521-.163-1.097-.432-1.55a39300.884 39300.884 0 0 0-15.486-20.462c-.44-.592-.908-1.224-.892-2Zm61.355 1.252c-.183-1.064 1.077-1.368 1.885-1.256 2.464.12 4.988-.3 7.405.297.192 6.136.188 12.277.18 18.418 8.877-.012 17.754.012 26.631-.012.028-6.117-.012-12.233.024-18.347.544-.227 1.12-.384 1.725-.356 2.3-.012 4.6.012 6.9-.007.173.128.513.38.681.507.084 15.302.008 30.604.04 45.907l-.641.64c-2.72-.056-5.448.084-8.165-.068a83.347 83.347 0 0 1-.512-.584c-.108-6.181-.007-12.366-.048-18.551-8.877-.016-17.758 0-26.635-.008.032 6.18-.04 12.362-.12 18.539-.148.164-.44.496-.588.66-2.729.004-5.457.004-8.186 0-.148-.164-.44-.492-.588-.66.016-15.038-.007-30.08.012-45.119Zm120.706 6.808c1.241-4.537 5.662-7.961 10.366-8.046 7.205-.044 14.41-.004 21.615-.02 1.876 0 3.804-.096 5.609.52 4.46 1.308 7.833 5.673 7.861 10.342.028 11.837 0 23.68.016 35.52-.149.165-.444.493-.588.657-2.733.004-5.461.004-8.186 0-.148-.164-.439-.496-.588-.66.008-10.762 0-21.523.004-32.285-.016-1.592.104-3.196-.215-4.768-1.557-.28-3.141-.165-4.709-.18-7.073.011-14.15-.025-21.219.015-.712-.083-1.076.673-1.008 1.277-.068 11.974.048 23.95-.057 35.92-.124.161-.375.473-.499.63-2.729.127-5.461.023-8.19.05-.176-.18-.527-.535-.704-.711.004-10.078 0-20.16 0-30.236.068-2.677-.256-5.417.492-8.025Zm75.348-7.427c3.796-1.2 8.029-1.144 11.767.244 3.325 1.236 5.777 4.205 6.907 7.51 3.384 10.14 6.7 20.302 10.08 30.444.772 2.748 1.984 5.38 2.503 8.193-3.004.028-6.011.007-9.015.003-1.267-3.532-2.369-7.12-3.508-10.693-8.785.008-17.57.028-26.351-.012-1.228 3.565-2.249 7.197-3.573 10.721-3.016-.035-6.032.036-9.049-.04 1.26-4.78 3.093-9.397 4.525-14.13 2.784-8.293 5.46-16.622 8.265-24.911 1.24-3.368 3.96-6.28 7.449-7.329Zm.176 11.866a1844.038 1844.038 0 0 1-5.02 15.286c6.901.048 13.801-.004 20.708.024-1.479-4.864-3.164-9.666-4.716-14.51-.303-.996-.593-2.048-1.318-2.829-1.415-1.76-3.963-2.048-6.033-1.555-1.792.327-3.136 1.892-3.621 3.584Zm40.316-2.012c.156-5.52 5.074-10.281 10.562-10.454 6.797-.092 13.598-.008 20.395-.04 3.347-.071 6.755 1.309 8.913 3.901 1.791 2.004 2.728 4.7 2.691 7.377-.009 3.864-.004 7.73 0 11.594-.028 2.936-1.01 5.997-3.15 8.085-1.745 1.84-4.312 2.849-6.833 2.8-7.849-.016-15.697.008-23.545-.012.004 3.849-.009 7.697.009 11.546.055.616-.161 1.192-.404 1.748-2.742-.004-5.483.012-8.22.008-.299-.54-.515-1.12-.432-1.744.028-11.602-.009-23.204.014-34.81Zm9.149-1.376c-.266 5.293-.059 10.601-.105 15.902 6.645-.04 13.295-.008 19.944-.015 1.447-.02 2.921.14 4.34-.273.354-4.608.055-9.253.165-13.874.014-.72.065-1.988-.96-1.944-6.925-.108-13.85 0-20.78-.052-.881-.024-1.759.016-2.604.256Zm43.96-7.876c-.142-.632.414-.94.827-1.28 2.498.128 5.006-.052 7.508.088.699.157.777.984.79 1.572.009 5.857-.013 11.714.009 17.567 2.113.032 4.225.016 6.338.02 5.12-6.07 10.121-12.246 15.242-18.319 1.005-1.076 2.58-.872 3.921-.891 2.242.056 4.501-.136 6.733.183.023.268.069.808.087 1.077-5.814 7.016-11.738 13.958-17.501 21.018 6.117 7.217 12.091 14.562 18.199 21.795.666.84 1.571 1.652 1.506 2.837-2.985.276-5.992.084-8.978.128-1.143.108-2.066-.664-2.709-1.509-4.767-5.768-9.579-11.49-14.314-17.282-2.838-.008-5.672-.004-8.51.005-.046 5.988-.018 11.985-.014 17.978-.114.2-.344.604-.463.804-2.655.016-5.309.028-7.959-.008l-.73-.62c.014-15.054-.023-30.113.018-45.163Z" fill="#FCFFFD"/><path fill-rule="evenodd" clip-rule="evenodd" d="M235.942 1.209c2.019-.532 4.128-.396 6.196-.404C249.351.8 256.56.809 263.773.797c1.956-.012 3.957.276 5.701 1.22 3.836 1.936 6.473 6.145 6.177 10.485-.028 5.733-.012 11.466-.008 17.199.02 4.273-2.701 8.385-6.637 10.053-1.617.812-3.445 1.02-5.229.948-7.473-.023-14.942 0-22.411-.012-1.464-.016-2.936.076-4.389-.112-4.929-.876-9.097-5.365-9.189-10.441.028-6.285-.028-12.57.024-18.855.132-4.68 3.673-8.837 8.13-10.073Zm-7.961 45.975c15.703-.132 31.409-.044 47.111-.044.972 2.484.22 5.252.484 7.861-.136.228-.416.676-.552.904-9.353.188-18.711.028-28.064.084-6.337-.052-12.678.1-19.007-.088-.408-2.056-.043-4.144-.207-6.217-.072-.844.071-1.68.235-2.5Zm9.105-37.015c-.404 1.944-.24 3.936-.26 5.908-.008 4.417.008 8.833-.012 13.246-.028.736.172 1.444.368 2.148 9.717.036 19.434.084 29.148-.027.232-7.042.084-14.094.072-21.144-.604-.156-1.212-.348-1.836-.348-8.401.005-16.803.028-25.204-.012-.772 0-1.528.108-2.276.229Z" fill="#fff"/></svg>