<svg width="189" height="58" fill="none" xmlns="http://www.w3.org/2000/svg"><path fill-rule="evenodd" clip-rule="evenodd" d="M0 .033v30.762h8.415c2.425 0 4.325-.353 5.7-1.057a8.435 8.435 0 0 0 3.373-3.188c.87-1.423 1.303-2.997 1.303-4.725 0-1.8-.418-3.357-1.264-4.675-.843-1.318-2.176-2.415-3.999-3.293 1.087-.838 1.873-1.736 2.358-2.69.49-.99.737-2.082.721-3.186 0-1.8-.53-3.363-1.591-4.688-1.062-1.323-2.492-2.228-4.29-2.716C9.457.214 7.456.033 4.72.033H0Zm5.715 12.066v-6.48h1.474c1.309 0 2.286.28 2.928.845.644.564.964 1.328.964 2.288 0 1.032-.34 1.847-1.014 2.45-.677.596-1.711.897-3.104.897H5.715Zm0 13.11v-7.883h1.184c2.253 0 3.862.386 4.829 1.152.97.766 1.452 1.81 1.452 3.138 0 1.169-.413 2.064-1.236 2.673-.825.617-2.424.92-4.8.92h-1.43ZM27.119 8.326h-5.57v22.755h5.57v-7.324l.584-.719 6.623 8.04h7.386L31.707 19.413l9.885-11.087h-6.801l-7.674 8.518V8.326h.002Zm16.493 0h5.692l5.767 14.277L61.432 8.33h5.713L53.24 39.404h-5.752l4.563-10.022-8.438-21.056h-.002Zm43.1 7.217 4.64-2.616a11.352 11.352 0 0 0-4.305-3.837c-1.756-.898-3.733-1.35-5.939-1.35-2.382 0-4.533.532-6.458 1.591a11.485 11.485 0 0 0-4.499 4.37 11.906 11.906 0 0 0-1.614 6.085c0 3.18 1.107 5.953 3.318 8.323 2.21 2.373 5.267 3.556 9.174 3.556 4.337 0 7.697-1.589 10.079-4.76l-4.397-3.083c-1.385 1.743-3.325 2.616-5.819 2.616-2.014 0-3.643-.612-4.882-1.84-1.243-1.221-1.86-2.803-1.86-4.738 0-1.992.644-3.62 1.932-4.896 1.286-1.274 2.972-1.91 5.056-1.91 1.144 0 2.139.179 2.992.542.853.363 1.71 1.01 2.581 1.947Zm9.23 15.538V.319h4.718c2.735 0 4.742.179 6.006.542 1.798.487 3.228 1.392 4.289 2.715 1.065 1.328 1.592 2.89 1.592 4.688 0 1.169-.239 2.233-.721 3.188-.483.955-1.268 1.853-2.358 2.689 1.823.877 3.159 1.977 4.002 3.295.845 1.318 1.265 2.872 1.265 4.672 0 1.729-.435 3.303-1.31 4.725-.871 1.425-1.995 2.487-3.37 3.191-1.375.704-3.272 1.057-5.695 1.057h-8.42.002Zm5.713-25.18v6.484h1.248c1.393 0 2.427-.299 3.104-.9.676-.6 1.014-1.418 1.014-2.447 0-.963-.323-1.726-.962-2.288-.642-.567-1.617-.848-2.93-.848h-1.474Zm0 11.711v7.884h1.432c2.373 0 3.974-.306 4.8-.92.823-.612 1.236-1.508 1.236-2.677 0-1.325-.483-2.37-1.453-3.135-.97-.769-2.579-1.152-4.829-1.152h-1.186Zm16.99 13.469h2.957l11.081-13.093V31.08h5.426V8.326h-2.671l-11.369 13.367V8.326h-5.427v22.755h.003Zm45.335 0h-5.67l-5.556-14.35-5.655 14.35h-5.652l9.47-22.755h3.588l9.475 22.755Zm19.348 0H189l-9.48-22.755h-3.591l-9.47 22.755h5.655l5.658-14.35 5.553 14.35h.003Z" fill="#fff"/><path d="M1.59 56.986h1.691v-10.86h4.957V44.62h-6.65v12.367h.002Zm5.437-4.449c0 2.699 2.084 4.66 4.665 4.66 2.564 0 4.65-1.964 4.65-4.66 0-2.68-2.086-4.625-4.667-4.625-2.562 0-4.65 1.944-4.65 4.625h.002Zm1.69 0c0-1.84 1.334-3.153 2.975-3.153 1.624 0 2.974 1.316 2.974 3.153 0 1.858-1.35 3.188-2.974 3.188-1.641 0-2.974-1.33-2.974-3.188ZM20.14 56.99h1.641v-7.411h3.027v-1.455h-7.675v1.455h3.01v7.41h-.003Zm5.446-4.452c0 2.699 2.086 4.66 4.668 4.66 2.561 0 4.648-1.964 4.648-4.66 0-2.68-2.087-4.625-4.666-4.625-2.564 0-4.65 1.944-4.65 4.625Zm1.691 0c0-1.84 1.335-3.153 2.977-3.153 1.621 0 2.971 1.316 2.971 3.153 0 1.858-1.35 3.188-2.974 3.188-1.641 0-2.972-1.33-2.972-3.188h-.002Zm9.624 4.452h3.69c1.88 0 3.179-.878 3.179-2.524 0-.983-.565-1.84-1.642-2.102v-.017A2.062 2.062 0 0 0 43.36 50.4c0-1.49-1.144-2.278-2.887-2.278H36.9v8.863l.002.003Zm1.656-5.118v-2.574h1.572c1.044 0 1.54.423 1.54 1.226 0 .823-.498 1.348-1.488 1.348h-1.624Zm0 3.924V53.01h1.761c1.144 0 1.778.527 1.778 1.402 0 .821-.564 1.383-1.76 1.383h-1.779Zm7.222 1.194h1.592l3.74-5.292c.273-.423.701-1.017.753-1.174h.033c0 .14-.05.753-.05 1.174v5.29h1.606v-8.864h-1.606l-3.725 5.29a14.75 14.75 0 0 0-.771 1.193h-.035c.035-.397.053-.795.052-1.193v-5.29h-1.591v8.863l.002.003Zm12.3 0h1.641v-7.411h3.024v-1.455H55.07v1.455h3.009v7.41Z" fill="#fff"/></svg>